<mxfile host="Electron" agent="Mozilla/5.0 (Macintosh; Intel Mac OS X 10_15_7) AppleWebKit/537.36 (KHTML, like Gecko) draw.io/27.0.9 Chrome/134.0.6998.205 Electron/35.4.0 Safari/537.36" version="27.0.9">
  <diagram name="Page-1" id="v0WApXCFmBwHuWS9lIOb">
    <mxGraphModel dx="5035" dy="4025" grid="1" gridSize="10" guides="1" tooltips="1" connect="1" arrows="1" fold="1" page="1" pageScale="1" pageWidth="850" pageHeight="1100" math="0" shadow="0">
      <root>
        <mxCell id="0" />
        <mxCell id="1" parent="0" />
        <mxCell id="iqE1R30niEO9-FOyuHYD-1" value="LoteriaCard" style="swimlane;fontStyle=1;align=center;verticalAlign=top;childLayout=stackLayout;horizontal=1;startSize=28.266666666666666;horizontalStack=0;resizeParent=1;resizeParentMax=0;resizeLast=0;collapsible=0;marginBottom=0;" vertex="1" parent="1">
          <mxGeometry x="2602" y="3047" width="456" height="428.26666666666665" as="geometry" />
        </mxCell>
        <mxCell id="iqE1R30niEO9-FOyuHYD-2" value="-int cardNumber" style="text;strokeColor=none;fillColor=none;align=left;verticalAlign=top;spacingLeft=4;spacingRight=4;overflow=hidden;rotatable=0;points=[[0,0.5],[1,0.5]];portConstraint=eastwest;" vertex="1" parent="iqE1R30niEO9-FOyuHYD-1">
          <mxGeometry y="28.266666666666666" width="456" height="28" as="geometry" />
        </mxCell>
        <mxCell id="iqE1R30niEO9-FOyuHYD-3" value="-String name" style="text;strokeColor=none;fillColor=none;align=left;verticalAlign=top;spacingLeft=4;spacingRight=4;overflow=hidden;rotatable=0;points=[[0,0.5],[1,0.5]];portConstraint=eastwest;" vertex="1" parent="iqE1R30niEO9-FOyuHYD-1">
          <mxGeometry y="56.266666666666666" width="456" height="28" as="geometry" />
        </mxCell>
        <mxCell id="iqE1R30niEO9-FOyuHYD-4" value="-String spanishName" style="text;strokeColor=none;fillColor=none;align=left;verticalAlign=top;spacingLeft=4;spacingRight=4;overflow=hidden;rotatable=0;points=[[0,0.5],[1,0.5]];portConstraint=eastwest;" vertex="1" parent="iqE1R30niEO9-FOyuHYD-1">
          <mxGeometry y="84.26666666666667" width="456" height="28" as="geometry" />
        </mxCell>
        <mxCell id="iqE1R30niEO9-FOyuHYD-5" value="-String riddle" style="text;strokeColor=none;fillColor=none;align=left;verticalAlign=top;spacingLeft=4;spacingRight=4;overflow=hidden;rotatable=0;points=[[0,0.5],[1,0.5]];portConstraint=eastwest;" vertex="1" parent="iqE1R30niEO9-FOyuHYD-1">
          <mxGeometry y="112.26666666666667" width="456" height="28" as="geometry" />
        </mxCell>
        <mxCell id="iqE1R30niEO9-FOyuHYD-6" value="-CardCategory category" style="text;strokeColor=none;fillColor=none;align=left;verticalAlign=top;spacingLeft=4;spacingRight=4;overflow=hidden;rotatable=0;points=[[0,0.5],[1,0.5]];portConstraint=eastwest;" vertex="1" parent="iqE1R30niEO9-FOyuHYD-1">
          <mxGeometry y="140.26666666666665" width="456" height="28" as="geometry" />
        </mxCell>
        <mxCell id="iqE1R30niEO9-FOyuHYD-7" style="line;strokeWidth=1;fillColor=none;align=left;verticalAlign=middle;spacingTop=-1;spacingLeft=3;spacingRight=3;rotatable=0;labelPosition=right;points=[];portConstraint=eastwest;strokeColor=inherit;" vertex="1" parent="iqE1R30niEO9-FOyuHYD-1">
          <mxGeometry y="168.26666666666665" width="456" height="8" as="geometry" />
        </mxCell>
        <mxCell id="iqE1R30niEO9-FOyuHYD-8" value="+LoteriaCard(int, String, String, String, CardCategory)" style="text;strokeColor=none;fillColor=none;align=left;verticalAlign=top;spacingLeft=4;spacingRight=4;overflow=hidden;rotatable=0;points=[[0,0.5],[1,0.5]];portConstraint=eastwest;" vertex="1" parent="iqE1R30niEO9-FOyuHYD-1">
          <mxGeometry y="176.26666666666665" width="456" height="28" as="geometry" />
        </mxCell>
        <mxCell id="iqE1R30niEO9-FOyuHYD-9" value="+int getCardNumber()" style="text;strokeColor=none;fillColor=none;align=left;verticalAlign=top;spacingLeft=4;spacingRight=4;overflow=hidden;rotatable=0;points=[[0,0.5],[1,0.5]];portConstraint=eastwest;" vertex="1" parent="iqE1R30niEO9-FOyuHYD-1">
          <mxGeometry y="204.26666666666665" width="456" height="28" as="geometry" />
        </mxCell>
        <mxCell id="iqE1R30niEO9-FOyuHYD-10" value="+String getName()" style="text;strokeColor=none;fillColor=none;align=left;verticalAlign=top;spacingLeft=4;spacingRight=4;overflow=hidden;rotatable=0;points=[[0,0.5],[1,0.5]];portConstraint=eastwest;" vertex="1" parent="iqE1R30niEO9-FOyuHYD-1">
          <mxGeometry y="232.26666666666665" width="456" height="28" as="geometry" />
        </mxCell>
        <mxCell id="iqE1R30niEO9-FOyuHYD-11" value="+String getSpanishName()" style="text;strokeColor=none;fillColor=none;align=left;verticalAlign=top;spacingLeft=4;spacingRight=4;overflow=hidden;rotatable=0;points=[[0,0.5],[1,0.5]];portConstraint=eastwest;" vertex="1" parent="iqE1R30niEO9-FOyuHYD-1">
          <mxGeometry y="260.26666666666665" width="456" height="28" as="geometry" />
        </mxCell>
        <mxCell id="iqE1R30niEO9-FOyuHYD-12" value="+String getRiddle()" style="text;strokeColor=none;fillColor=none;align=left;verticalAlign=top;spacingLeft=4;spacingRight=4;overflow=hidden;rotatable=0;points=[[0,0.5],[1,0.5]];portConstraint=eastwest;" vertex="1" parent="iqE1R30niEO9-FOyuHYD-1">
          <mxGeometry y="288.26666666666665" width="456" height="28" as="geometry" />
        </mxCell>
        <mxCell id="iqE1R30niEO9-FOyuHYD-13" value="+CardCategory getCategory()" style="text;strokeColor=none;fillColor=none;align=left;verticalAlign=top;spacingLeft=4;spacingRight=4;overflow=hidden;rotatable=0;points=[[0,0.5],[1,0.5]];portConstraint=eastwest;" vertex="1" parent="iqE1R30niEO9-FOyuHYD-1">
          <mxGeometry y="316.26666666666665" width="456" height="28" as="geometry" />
        </mxCell>
        <mxCell id="iqE1R30niEO9-FOyuHYD-14" value="+String toString()" style="text;strokeColor=none;fillColor=none;align=left;verticalAlign=top;spacingLeft=4;spacingRight=4;overflow=hidden;rotatable=0;points=[[0,0.5],[1,0.5]];portConstraint=eastwest;" vertex="1" parent="iqE1R30niEO9-FOyuHYD-1">
          <mxGeometry y="344.26666666666665" width="456" height="28" as="geometry" />
        </mxCell>
        <mxCell id="iqE1R30niEO9-FOyuHYD-15" value="+boolean equals(Object)" style="text;strokeColor=none;fillColor=none;align=left;verticalAlign=top;spacingLeft=4;spacingRight=4;overflow=hidden;rotatable=0;points=[[0,0.5],[1,0.5]];portConstraint=eastwest;" vertex="1" parent="iqE1R30niEO9-FOyuHYD-1">
          <mxGeometry y="372.26666666666665" width="456" height="28" as="geometry" />
        </mxCell>
        <mxCell id="iqE1R30niEO9-FOyuHYD-16" value="+int hashCode()" style="text;strokeColor=none;fillColor=none;align=left;verticalAlign=top;spacingLeft=4;spacingRight=4;overflow=hidden;rotatable=0;points=[[0,0.5],[1,0.5]];portConstraint=eastwest;" vertex="1" parent="iqE1R30niEO9-FOyuHYD-1">
          <mxGeometry y="400.26666666666665" width="456" height="28" as="geometry" />
        </mxCell>
        <mxCell id="iqE1R30niEO9-FOyuHYD-17" value="&lt;&lt;enumeration&gt;&gt;&#xa;CardCategory" style="swimlane;fontStyle=1;align=center;verticalAlign=top;childLayout=stackLayout;horizontal=1;startSize=45.599999999999994;horizontalStack=0;resizeParent=1;resizeParentMax=0;resizeLast=0;collapsible=0;marginBottom=0;" vertex="1" parent="1">
          <mxGeometry x="2464" y="3551" width="155" height="300.6" as="geometry" />
        </mxCell>
        <mxCell id="iqE1R30niEO9-FOyuHYD-18" value="PEOPLE" style="text;strokeColor=none;fillColor=none;align=left;verticalAlign=top;spacingLeft=4;spacingRight=4;overflow=hidden;rotatable=0;points=[[0,0.5],[1,0.5]];portConstraint=eastwest;" vertex="1" parent="iqE1R30niEO9-FOyuHYD-17">
          <mxGeometry y="45.599999999999994" width="155" height="30" as="geometry" />
        </mxCell>
        <mxCell id="iqE1R30niEO9-FOyuHYD-19" value="ANIMALS" style="text;strokeColor=none;fillColor=none;align=left;verticalAlign=top;spacingLeft=4;spacingRight=4;overflow=hidden;rotatable=0;points=[[0,0.5],[1,0.5]];portConstraint=eastwest;" vertex="1" parent="iqE1R30niEO9-FOyuHYD-17">
          <mxGeometry y="75.6" width="155" height="30" as="geometry" />
        </mxCell>
        <mxCell id="iqE1R30niEO9-FOyuHYD-20" value="OBJECTS" style="text;strokeColor=none;fillColor=none;align=left;verticalAlign=top;spacingLeft=4;spacingRight=4;overflow=hidden;rotatable=0;points=[[0,0.5],[1,0.5]];portConstraint=eastwest;" vertex="1" parent="iqE1R30niEO9-FOyuHYD-17">
          <mxGeometry y="105.6" width="155" height="30" as="geometry" />
        </mxCell>
        <mxCell id="iqE1R30niEO9-FOyuHYD-21" value="NATURE" style="text;strokeColor=none;fillColor=none;align=left;verticalAlign=top;spacingLeft=4;spacingRight=4;overflow=hidden;rotatable=0;points=[[0,0.5],[1,0.5]];portConstraint=eastwest;" vertex="1" parent="iqE1R30niEO9-FOyuHYD-17">
          <mxGeometry y="135.6" width="155" height="30" as="geometry" />
        </mxCell>
        <mxCell id="iqE1R30niEO9-FOyuHYD-22" value="FOOD" style="text;strokeColor=none;fillColor=none;align=left;verticalAlign=top;spacingLeft=4;spacingRight=4;overflow=hidden;rotatable=0;points=[[0,0.5],[1,0.5]];portConstraint=eastwest;" vertex="1" parent="iqE1R30niEO9-FOyuHYD-17">
          <mxGeometry y="165.6" width="155" height="30" as="geometry" />
        </mxCell>
        <mxCell id="iqE1R30niEO9-FOyuHYD-23" value="ACTIVITIES" style="text;strokeColor=none;fillColor=none;align=left;verticalAlign=top;spacingLeft=4;spacingRight=4;overflow=hidden;rotatable=0;points=[[0,0.5],[1,0.5]];portConstraint=eastwest;" vertex="1" parent="iqE1R30niEO9-FOyuHYD-17">
          <mxGeometry y="195.6" width="155" height="30" as="geometry" />
        </mxCell>
        <mxCell id="iqE1R30niEO9-FOyuHYD-24" value="SYMBOLS" style="text;strokeColor=none;fillColor=none;align=left;verticalAlign=top;spacingLeft=4;spacingRight=4;overflow=hidden;rotatable=0;points=[[0,0.5],[1,0.5]];portConstraint=eastwest;" vertex="1" parent="iqE1R30niEO9-FOyuHYD-17">
          <mxGeometry y="225.6" width="155" height="30" as="geometry" />
        </mxCell>
        <mxCell id="iqE1R30niEO9-FOyuHYD-25" value="MISC" style="text;strokeColor=none;fillColor=none;align=left;verticalAlign=top;spacingLeft=4;spacingRight=4;overflow=hidden;rotatable=0;points=[[0,0.5],[1,0.5]];portConstraint=eastwest;" vertex="1" parent="iqE1R30niEO9-FOyuHYD-17">
          <mxGeometry y="255.6" width="155" height="30" as="geometry" />
        </mxCell>
        <mxCell id="iqE1R30niEO9-FOyuHYD-26" style="line;strokeWidth=1;fillColor=none;align=left;verticalAlign=middle;spacingTop=-1;spacingLeft=3;spacingRight=3;rotatable=0;labelPosition=right;points=[];portConstraint=eastwest;strokeColor=inherit;" vertex="1" parent="iqE1R30niEO9-FOyuHYD-17">
          <mxGeometry y="285.6" width="155" height="15" as="geometry" />
        </mxCell>
        <mxCell id="iqE1R30niEO9-FOyuHYD-27" value="&lt;&lt;utility&gt;&gt;&#xa;LoteriaCards" style="swimlane;fontStyle=1;align=center;verticalAlign=top;childLayout=stackLayout;horizontal=1;startSize=45.12;horizontalStack=0;resizeParent=1;resizeParentMax=0;resizeLast=0;collapsible=0;marginBottom=0;" vertex="1" parent="1">
          <mxGeometry x="1968" y="2590" width="463" height="383.12" as="geometry" />
        </mxCell>
        <mxCell id="iqE1R30niEO9-FOyuHYD-28" value="-List&lt;LoteriaCard&gt; ALL_CARDS" style="text;strokeColor=none;fillColor=none;align=left;verticalAlign=top;spacingLeft=4;spacingRight=4;overflow=hidden;rotatable=0;points=[[0,0.5],[1,0.5]];portConstraint=eastwest;" vertex="1" parent="iqE1R30niEO9-FOyuHYD-27">
          <mxGeometry y="45.12" width="463" height="30" as="geometry" />
        </mxCell>
        <mxCell id="iqE1R30niEO9-FOyuHYD-29" value="-Map&lt;Integer, LoteriaCard&gt; CARD_MAP" style="text;strokeColor=none;fillColor=none;align=left;verticalAlign=top;spacingLeft=4;spacingRight=4;overflow=hidden;rotatable=0;points=[[0,0.5],[1,0.5]];portConstraint=eastwest;" vertex="1" parent="iqE1R30niEO9-FOyuHYD-27">
          <mxGeometry y="75.12" width="463" height="30" as="geometry" />
        </mxCell>
        <mxCell id="iqE1R30niEO9-FOyuHYD-30" value="+LoteriaCard EL_GALLO" style="text;strokeColor=none;fillColor=none;align=left;verticalAlign=top;spacingLeft=4;spacingRight=4;overflow=hidden;rotatable=0;points=[[0,0.5],[1,0.5]];portConstraint=eastwest;" vertex="1" parent="iqE1R30niEO9-FOyuHYD-27">
          <mxGeometry y="105.12" width="463" height="30" as="geometry" />
        </mxCell>
        <mxCell id="iqE1R30niEO9-FOyuHYD-31" value="+LoteriaCard EL_DIABLO" style="text;strokeColor=none;fillColor=none;align=left;verticalAlign=top;spacingLeft=4;spacingRight=4;overflow=hidden;rotatable=0;points=[[0,0.5],[1,0.5]];portConstraint=eastwest;" vertex="1" parent="iqE1R30niEO9-FOyuHYD-27">
          <mxGeometry y="135.12" width="463" height="30" as="geometry" />
        </mxCell>
        <mxCell id="iqE1R30niEO9-FOyuHYD-32" value="+LoteriaCard LA_DAMA" style="text;strokeColor=none;fillColor=none;align=left;verticalAlign=top;spacingLeft=4;spacingRight=4;overflow=hidden;rotatable=0;points=[[0,0.5],[1,0.5]];portConstraint=eastwest;" vertex="1" parent="iqE1R30niEO9-FOyuHYD-27">
          <mxGeometry y="165.12" width="463" height="30" as="geometry" />
        </mxCell>
        <mxCell id="iqE1R30niEO9-FOyuHYD-33" value="+LoteriaCard EL_CATRIN" style="text;strokeColor=none;fillColor=none;align=left;verticalAlign=top;spacingLeft=4;spacingRight=4;overflow=hidden;rotatable=0;points=[[0,0.5],[1,0.5]];portConstraint=eastwest;" vertex="1" parent="iqE1R30niEO9-FOyuHYD-27">
          <mxGeometry y="195.12" width="463" height="30" as="geometry" />
        </mxCell>
        <mxCell id="iqE1R30niEO9-FOyuHYD-34" value="+LoteriaCard LA_SIRENA" style="text;strokeColor=none;fillColor=none;align=left;verticalAlign=top;spacingLeft=4;spacingRight=4;overflow=hidden;rotatable=0;points=[[0,0.5],[1,0.5]];portConstraint=eastwest;" vertex="1" parent="iqE1R30niEO9-FOyuHYD-27">
          <mxGeometry y="225.12" width="463" height="30" as="geometry" />
        </mxCell>
        <mxCell id="iqE1R30niEO9-FOyuHYD-35" value="+LoteriaCard LA_CALAVERA" style="text;strokeColor=none;fillColor=none;align=left;verticalAlign=top;spacingLeft=4;spacingRight=4;overflow=hidden;rotatable=0;points=[[0,0.5],[1,0.5]];portConstraint=eastwest;" vertex="1" parent="iqE1R30niEO9-FOyuHYD-27">
          <mxGeometry y="255.12" width="463" height="30" as="geometry" />
        </mxCell>
        <mxCell id="iqE1R30niEO9-FOyuHYD-36" style="line;strokeWidth=1;fillColor=none;align=left;verticalAlign=middle;spacingTop=-1;spacingLeft=3;spacingRight=3;rotatable=0;labelPosition=right;points=[];portConstraint=eastwest;strokeColor=inherit;" vertex="1" parent="iqE1R30niEO9-FOyuHYD-27">
          <mxGeometry y="285.12" width="463" height="8" as="geometry" />
        </mxCell>
        <mxCell id="iqE1R30niEO9-FOyuHYD-37" value="+List&lt;LoteriaCard&gt; getAllCards()" style="text;strokeColor=none;fillColor=none;align=left;verticalAlign=top;spacingLeft=4;spacingRight=4;overflow=hidden;rotatable=0;points=[[0,0.5],[1,0.5]];portConstraint=eastwest;" vertex="1" parent="iqE1R30niEO9-FOyuHYD-27">
          <mxGeometry y="293.12" width="463" height="30" as="geometry" />
        </mxCell>
        <mxCell id="iqE1R30niEO9-FOyuHYD-38" value="+LoteriaCard getCardByNumber(int)" style="text;strokeColor=none;fillColor=none;align=left;verticalAlign=top;spacingLeft=4;spacingRight=4;overflow=hidden;rotatable=0;points=[[0,0.5],[1,0.5]];portConstraint=eastwest;" vertex="1" parent="iqE1R30niEO9-FOyuHYD-27">
          <mxGeometry y="323.12" width="463" height="30" as="geometry" />
        </mxCell>
        <mxCell id="iqE1R30niEO9-FOyuHYD-39" value="+List&lt;LoteriaCard&gt; getCardsByCategory(CardCategory)" style="text;strokeColor=none;fillColor=none;align=left;verticalAlign=top;spacingLeft=4;spacingRight=4;overflow=hidden;rotatable=0;points=[[0,0.5],[1,0.5]];portConstraint=eastwest;" vertex="1" parent="iqE1R30niEO9-FOyuHYD-27">
          <mxGeometry y="353.12" width="463" height="30" as="geometry" />
        </mxCell>
        <mxCell id="iqE1R30niEO9-FOyuHYD-40" value="Deck" style="swimlane;fontStyle=1;align=center;verticalAlign=top;childLayout=stackLayout;horizontal=1;startSize=28.923076923076923;horizontalStack=0;resizeParent=1;resizeParentMax=0;resizeLast=0;collapsible=0;marginBottom=0;" vertex="1" parent="1">
          <mxGeometry x="2204" y="2134" width="290" height="384.9230769230769" as="geometry" />
        </mxCell>
        <mxCell id="iqE1R30niEO9-FOyuHYD-41" value="-List&lt;LoteriaCard&gt; cards" style="text;strokeColor=none;fillColor=none;align=left;verticalAlign=top;spacingLeft=4;spacingRight=4;overflow=hidden;rotatable=0;points=[[0,0.5],[1,0.5]];portConstraint=eastwest;" vertex="1" parent="iqE1R30niEO9-FOyuHYD-40">
          <mxGeometry y="28.923076923076923" width="290" height="29" as="geometry" />
        </mxCell>
        <mxCell id="iqE1R30niEO9-FOyuHYD-42" value="-List&lt;LoteriaCard&gt; remainingCards" style="text;strokeColor=none;fillColor=none;align=left;verticalAlign=top;spacingLeft=4;spacingRight=4;overflow=hidden;rotatable=0;points=[[0,0.5],[1,0.5]];portConstraint=eastwest;" vertex="1" parent="iqE1R30niEO9-FOyuHYD-40">
          <mxGeometry y="57.92307692307692" width="290" height="29" as="geometry" />
        </mxCell>
        <mxCell id="iqE1R30niEO9-FOyuHYD-43" value="-List&lt;LoteriaCard&gt; calledCards" style="text;strokeColor=none;fillColor=none;align=left;verticalAlign=top;spacingLeft=4;spacingRight=4;overflow=hidden;rotatable=0;points=[[0,0.5],[1,0.5]];portConstraint=eastwest;" vertex="1" parent="iqE1R30niEO9-FOyuHYD-40">
          <mxGeometry y="86.92307692307692" width="290" height="29" as="geometry" />
        </mxCell>
        <mxCell id="iqE1R30niEO9-FOyuHYD-44" style="line;strokeWidth=1;fillColor=none;align=left;verticalAlign=middle;spacingTop=-1;spacingLeft=3;spacingRight=3;rotatable=0;labelPosition=right;points=[];portConstraint=eastwest;strokeColor=inherit;" vertex="1" parent="iqE1R30niEO9-FOyuHYD-40">
          <mxGeometry y="115.92307692307692" width="290" height="8" as="geometry" />
        </mxCell>
        <mxCell id="iqE1R30niEO9-FOyuHYD-45" value="+Deck()" style="text;strokeColor=none;fillColor=none;align=left;verticalAlign=top;spacingLeft=4;spacingRight=4;overflow=hidden;rotatable=0;points=[[0,0.5],[1,0.5]];portConstraint=eastwest;" vertex="1" parent="iqE1R30niEO9-FOyuHYD-40">
          <mxGeometry y="123.92307692307692" width="290" height="29" as="geometry" />
        </mxCell>
        <mxCell id="iqE1R30niEO9-FOyuHYD-46" value="-void initializeDeck()" style="text;strokeColor=none;fillColor=none;align=left;verticalAlign=top;spacingLeft=4;spacingRight=4;overflow=hidden;rotatable=0;points=[[0,0.5],[1,0.5]];portConstraint=eastwest;" vertex="1" parent="iqE1R30niEO9-FOyuHYD-40">
          <mxGeometry y="152.9230769230769" width="290" height="29" as="geometry" />
        </mxCell>
        <mxCell id="iqE1R30niEO9-FOyuHYD-47" value="+void shuffle()" style="text;strokeColor=none;fillColor=none;align=left;verticalAlign=top;spacingLeft=4;spacingRight=4;overflow=hidden;rotatable=0;points=[[0,0.5],[1,0.5]];portConstraint=eastwest;" vertex="1" parent="iqE1R30niEO9-FOyuHYD-40">
          <mxGeometry y="181.9230769230769" width="290" height="29" as="geometry" />
        </mxCell>
        <mxCell id="iqE1R30niEO9-FOyuHYD-48" value="+LoteriaCard drawCard()" style="text;strokeColor=none;fillColor=none;align=left;verticalAlign=top;spacingLeft=4;spacingRight=4;overflow=hidden;rotatable=0;points=[[0,0.5],[1,0.5]];portConstraint=eastwest;" vertex="1" parent="iqE1R30niEO9-FOyuHYD-40">
          <mxGeometry y="210.9230769230769" width="290" height="29" as="geometry" />
        </mxCell>
        <mxCell id="iqE1R30niEO9-FOyuHYD-49" value="+boolean hasMoreCards()" style="text;strokeColor=none;fillColor=none;align=left;verticalAlign=top;spacingLeft=4;spacingRight=4;overflow=hidden;rotatable=0;points=[[0,0.5],[1,0.5]];portConstraint=eastwest;" vertex="1" parent="iqE1R30niEO9-FOyuHYD-40">
          <mxGeometry y="239.9230769230769" width="290" height="29" as="geometry" />
        </mxCell>
        <mxCell id="iqE1R30niEO9-FOyuHYD-50" value="+void reset()" style="text;strokeColor=none;fillColor=none;align=left;verticalAlign=top;spacingLeft=4;spacingRight=4;overflow=hidden;rotatable=0;points=[[0,0.5],[1,0.5]];portConstraint=eastwest;" vertex="1" parent="iqE1R30niEO9-FOyuHYD-40">
          <mxGeometry y="268.9230769230769" width="290" height="29" as="geometry" />
        </mxCell>
        <mxCell id="iqE1R30niEO9-FOyuHYD-51" value="+LoteriaCard getCard(int)" style="text;strokeColor=none;fillColor=none;align=left;verticalAlign=top;spacingLeft=4;spacingRight=4;overflow=hidden;rotatable=0;points=[[0,0.5],[1,0.5]];portConstraint=eastwest;" vertex="1" parent="iqE1R30niEO9-FOyuHYD-40">
          <mxGeometry y="297.9230769230769" width="290" height="29" as="geometry" />
        </mxCell>
        <mxCell id="iqE1R30niEO9-FOyuHYD-52" value="+List&lt;LoteriaCard&gt; getAllCards()" style="text;strokeColor=none;fillColor=none;align=left;verticalAlign=top;spacingLeft=4;spacingRight=4;overflow=hidden;rotatable=0;points=[[0,0.5],[1,0.5]];portConstraint=eastwest;" vertex="1" parent="iqE1R30niEO9-FOyuHYD-40">
          <mxGeometry y="326.9230769230769" width="290" height="29" as="geometry" />
        </mxCell>
        <mxCell id="iqE1R30niEO9-FOyuHYD-53" value="+int getRemainingCount()" style="text;strokeColor=none;fillColor=none;align=left;verticalAlign=top;spacingLeft=4;spacingRight=4;overflow=hidden;rotatable=0;points=[[0,0.5],[1,0.5]];portConstraint=eastwest;" vertex="1" parent="iqE1R30niEO9-FOyuHYD-40">
          <mxGeometry y="355.9230769230769" width="290" height="29" as="geometry" />
        </mxCell>
        <mxCell id="iqE1R30niEO9-FOyuHYD-54" value="Caller" style="swimlane;fontStyle=1;align=center;verticalAlign=top;childLayout=stackLayout;horizontal=1;startSize=30.4;horizontalStack=0;resizeParent=1;resizeParentMax=0;resizeLast=0;collapsible=0;marginBottom=0;" vertex="1" parent="1">
          <mxGeometry x="2848" y="1665" width="315" height="308.4" as="geometry" />
        </mxCell>
        <mxCell id="iqE1R30niEO9-FOyuHYD-55" value="-Deck deck" style="text;strokeColor=none;fillColor=none;align=left;verticalAlign=top;spacingLeft=4;spacingRight=4;overflow=hidden;rotatable=0;points=[[0,0.5],[1,0.5]];portConstraint=eastwest;" vertex="1" parent="iqE1R30niEO9-FOyuHYD-54">
          <mxGeometry y="30.4" width="315" height="30" as="geometry" />
        </mxCell>
        <mxCell id="iqE1R30niEO9-FOyuHYD-56" value="-List&lt;String&gt; callingPhrases" style="text;strokeColor=none;fillColor=none;align=left;verticalAlign=top;spacingLeft=4;spacingRight=4;overflow=hidden;rotatable=0;points=[[0,0.5],[1,0.5]];portConstraint=eastwest;" vertex="1" parent="iqE1R30niEO9-FOyuHYD-54">
          <mxGeometry y="60.4" width="315" height="30" as="geometry" />
        </mxCell>
        <mxCell id="iqE1R30niEO9-FOyuHYD-57" value="-Random random" style="text;strokeColor=none;fillColor=none;align=left;verticalAlign=top;spacingLeft=4;spacingRight=4;overflow=hidden;rotatable=0;points=[[0,0.5],[1,0.5]];portConstraint=eastwest;" vertex="1" parent="iqE1R30niEO9-FOyuHYD-54">
          <mxGeometry y="90.4" width="315" height="30" as="geometry" />
        </mxCell>
        <mxCell id="iqE1R30niEO9-FOyuHYD-58" style="line;strokeWidth=1;fillColor=none;align=left;verticalAlign=middle;spacingTop=-1;spacingLeft=3;spacingRight=3;rotatable=0;labelPosition=right;points=[];portConstraint=eastwest;strokeColor=inherit;" vertex="1" parent="iqE1R30niEO9-FOyuHYD-54">
          <mxGeometry y="120.4" width="315" height="8" as="geometry" />
        </mxCell>
        <mxCell id="iqE1R30niEO9-FOyuHYD-59" value="+Caller(Deck)" style="text;strokeColor=none;fillColor=none;align=left;verticalAlign=top;spacingLeft=4;spacingRight=4;overflow=hidden;rotatable=0;points=[[0,0.5],[1,0.5]];portConstraint=eastwest;" vertex="1" parent="iqE1R30niEO9-FOyuHYD-54">
          <mxGeometry y="128.4" width="315" height="30" as="geometry" />
        </mxCell>
        <mxCell id="iqE1R30niEO9-FOyuHYD-60" value="+LoteriaCard callCard()" style="text;strokeColor=none;fillColor=none;align=left;verticalAlign=top;spacingLeft=4;spacingRight=4;overflow=hidden;rotatable=0;points=[[0,0.5],[1,0.5]];portConstraint=eastwest;" vertex="1" parent="iqE1R30niEO9-FOyuHYD-54">
          <mxGeometry y="158.4" width="315" height="30" as="geometry" />
        </mxCell>
        <mxCell id="iqE1R30niEO9-FOyuHYD-61" value="+String announceCard(LoteriaCard)" style="text;strokeColor=none;fillColor=none;align=left;verticalAlign=top;spacingLeft=4;spacingRight=4;overflow=hidden;rotatable=0;points=[[0,0.5],[1,0.5]];portConstraint=eastwest;" vertex="1" parent="iqE1R30niEO9-FOyuHYD-54">
          <mxGeometry y="188.4" width="315" height="30" as="geometry" />
        </mxCell>
        <mxCell id="iqE1R30niEO9-FOyuHYD-62" value="+String getCallingPhrase(LoteriaCard)" style="text;strokeColor=none;fillColor=none;align=left;verticalAlign=top;spacingLeft=4;spacingRight=4;overflow=hidden;rotatable=0;points=[[0,0.5],[1,0.5]];portConstraint=eastwest;" vertex="1" parent="iqE1R30niEO9-FOyuHYD-54">
          <mxGeometry y="218.4" width="315" height="30" as="geometry" />
        </mxCell>
        <mxCell id="iqE1R30niEO9-FOyuHYD-63" value="+boolean hasMoreCards()" style="text;strokeColor=none;fillColor=none;align=left;verticalAlign=top;spacingLeft=4;spacingRight=4;overflow=hidden;rotatable=0;points=[[0,0.5],[1,0.5]];portConstraint=eastwest;" vertex="1" parent="iqE1R30niEO9-FOyuHYD-54">
          <mxGeometry y="248.4" width="315" height="30" as="geometry" />
        </mxCell>
        <mxCell id="iqE1R30niEO9-FOyuHYD-64" value="-void initializePhrases()" style="text;strokeColor=none;fillColor=none;align=left;verticalAlign=top;spacingLeft=4;spacingRight=4;overflow=hidden;rotatable=0;points=[[0,0.5],[1,0.5]];portConstraint=eastwest;" vertex="1" parent="iqE1R30niEO9-FOyuHYD-54">
          <mxGeometry y="278.4" width="315" height="30" as="geometry" />
        </mxCell>
        <mxCell id="iqE1R30niEO9-FOyuHYD-65" value="Position" style="swimlane;fontStyle=1;align=center;verticalAlign=top;childLayout=stackLayout;horizontal=1;startSize=31.11111111111111;horizontalStack=0;resizeParent=1;resizeParentMax=0;resizeLast=0;collapsible=0;marginBottom=0;" vertex="1" parent="1">
          <mxGeometry x="836" y="2638" width="230" height="287.1111111111111" as="geometry" />
        </mxCell>
        <mxCell id="iqE1R30niEO9-FOyuHYD-66" value="-int row" style="text;strokeColor=none;fillColor=none;align=left;verticalAlign=top;spacingLeft=4;spacingRight=4;overflow=hidden;rotatable=0;points=[[0,0.5],[1,0.5]];portConstraint=eastwest;" vertex="1" parent="iqE1R30niEO9-FOyuHYD-65">
          <mxGeometry y="31.11111111111111" width="230" height="31" as="geometry" />
        </mxCell>
        <mxCell id="iqE1R30niEO9-FOyuHYD-67" value="-int col" style="text;strokeColor=none;fillColor=none;align=left;verticalAlign=top;spacingLeft=4;spacingRight=4;overflow=hidden;rotatable=0;points=[[0,0.5],[1,0.5]];portConstraint=eastwest;" vertex="1" parent="iqE1R30niEO9-FOyuHYD-65">
          <mxGeometry y="62.111111111111114" width="230" height="31" as="geometry" />
        </mxCell>
        <mxCell id="iqE1R30niEO9-FOyuHYD-68" style="line;strokeWidth=1;fillColor=none;align=left;verticalAlign=middle;spacingTop=-1;spacingLeft=3;spacingRight=3;rotatable=0;labelPosition=right;points=[];portConstraint=eastwest;strokeColor=inherit;" vertex="1" parent="iqE1R30niEO9-FOyuHYD-65">
          <mxGeometry y="93.11111111111111" width="230" height="8" as="geometry" />
        </mxCell>
        <mxCell id="iqE1R30niEO9-FOyuHYD-69" value="+Position(int, int)" style="text;strokeColor=none;fillColor=none;align=left;verticalAlign=top;spacingLeft=4;spacingRight=4;overflow=hidden;rotatable=0;points=[[0,0.5],[1,0.5]];portConstraint=eastwest;" vertex="1" parent="iqE1R30niEO9-FOyuHYD-65">
          <mxGeometry y="101.11111111111111" width="230" height="31" as="geometry" />
        </mxCell>
        <mxCell id="iqE1R30niEO9-FOyuHYD-70" value="+int getRow()" style="text;strokeColor=none;fillColor=none;align=left;verticalAlign=top;spacingLeft=4;spacingRight=4;overflow=hidden;rotatable=0;points=[[0,0.5],[1,0.5]];portConstraint=eastwest;" vertex="1" parent="iqE1R30niEO9-FOyuHYD-65">
          <mxGeometry y="132.11111111111111" width="230" height="31" as="geometry" />
        </mxCell>
        <mxCell id="iqE1R30niEO9-FOyuHYD-71" value="+int getCol()" style="text;strokeColor=none;fillColor=none;align=left;verticalAlign=top;spacingLeft=4;spacingRight=4;overflow=hidden;rotatable=0;points=[[0,0.5],[1,0.5]];portConstraint=eastwest;" vertex="1" parent="iqE1R30niEO9-FOyuHYD-65">
          <mxGeometry y="163.11111111111111" width="230" height="31" as="geometry" />
        </mxCell>
        <mxCell id="iqE1R30niEO9-FOyuHYD-72" value="+String toString()" style="text;strokeColor=none;fillColor=none;align=left;verticalAlign=top;spacingLeft=4;spacingRight=4;overflow=hidden;rotatable=0;points=[[0,0.5],[1,0.5]];portConstraint=eastwest;" vertex="1" parent="iqE1R30niEO9-FOyuHYD-65">
          <mxGeometry y="194.11111111111111" width="230" height="31" as="geometry" />
        </mxCell>
        <mxCell id="iqE1R30niEO9-FOyuHYD-73" value="+boolean equals(Object)" style="text;strokeColor=none;fillColor=none;align=left;verticalAlign=top;spacingLeft=4;spacingRight=4;overflow=hidden;rotatable=0;points=[[0,0.5],[1,0.5]];portConstraint=eastwest;" vertex="1" parent="iqE1R30niEO9-FOyuHYD-65">
          <mxGeometry y="225.11111111111111" width="230" height="31" as="geometry" />
        </mxCell>
        <mxCell id="iqE1R30niEO9-FOyuHYD-74" value="+int hashCode()" style="text;strokeColor=none;fillColor=none;align=left;verticalAlign=top;spacingLeft=4;spacingRight=4;overflow=hidden;rotatable=0;points=[[0,0.5],[1,0.5]];portConstraint=eastwest;" vertex="1" parent="iqE1R30niEO9-FOyuHYD-65">
          <mxGeometry y="256.1111111111111" width="230" height="31" as="geometry" />
        </mxCell>
        <mxCell id="iqE1R30niEO9-FOyuHYD-75" value="&lt;&lt;enumeration&gt;&gt;&#xa;PatternType" style="swimlane;fontStyle=1;align=center;verticalAlign=top;childLayout=stackLayout;horizontal=1;startSize=44;horizontalStack=0;resizeParent=1;resizeParentMax=0;resizeLast=0;collapsible=0;marginBottom=0;" vertex="1" parent="1">
          <mxGeometry x="1571" y="2602" width="208" height="349" as="geometry" />
        </mxCell>
        <mxCell id="iqE1R30niEO9-FOyuHYD-76" value="FULL_CARD" style="text;strokeColor=none;fillColor=none;align=left;verticalAlign=top;spacingLeft=4;spacingRight=4;overflow=hidden;rotatable=0;points=[[0,0.5],[1,0.5]];portConstraint=eastwest;" vertex="1" parent="iqE1R30niEO9-FOyuHYD-75">
          <mxGeometry y="44" width="208" height="29" as="geometry" />
        </mxCell>
        <mxCell id="iqE1R30niEO9-FOyuHYD-77" value="FOUR_CORNERS" style="text;strokeColor=none;fillColor=none;align=left;verticalAlign=top;spacingLeft=4;spacingRight=4;overflow=hidden;rotatable=0;points=[[0,0.5],[1,0.5]];portConstraint=eastwest;" vertex="1" parent="iqE1R30niEO9-FOyuHYD-75">
          <mxGeometry y="73" width="208" height="29" as="geometry" />
        </mxCell>
        <mxCell id="iqE1R30niEO9-FOyuHYD-78" value="HORIZONTAL_LINE" style="text;strokeColor=none;fillColor=none;align=left;verticalAlign=top;spacingLeft=4;spacingRight=4;overflow=hidden;rotatable=0;points=[[0,0.5],[1,0.5]];portConstraint=eastwest;" vertex="1" parent="iqE1R30niEO9-FOyuHYD-75">
          <mxGeometry y="102" width="208" height="29" as="geometry" />
        </mxCell>
        <mxCell id="iqE1R30niEO9-FOyuHYD-79" value="VERTICAL_LINE" style="text;strokeColor=none;fillColor=none;align=left;verticalAlign=top;spacingLeft=4;spacingRight=4;overflow=hidden;rotatable=0;points=[[0,0.5],[1,0.5]];portConstraint=eastwest;" vertex="1" parent="iqE1R30niEO9-FOyuHYD-75">
          <mxGeometry y="131" width="208" height="29" as="geometry" />
        </mxCell>
        <mxCell id="iqE1R30niEO9-FOyuHYD-80" value="DIAGONAL_LINE" style="text;strokeColor=none;fillColor=none;align=left;verticalAlign=top;spacingLeft=4;spacingRight=4;overflow=hidden;rotatable=0;points=[[0,0.5],[1,0.5]];portConstraint=eastwest;" vertex="1" parent="iqE1R30niEO9-FOyuHYD-75">
          <mxGeometry y="160" width="208" height="29" as="geometry" />
        </mxCell>
        <mxCell id="iqE1R30niEO9-FOyuHYD-81" value="CROSS" style="text;strokeColor=none;fillColor=none;align=left;verticalAlign=top;spacingLeft=4;spacingRight=4;overflow=hidden;rotatable=0;points=[[0,0.5],[1,0.5]];portConstraint=eastwest;" vertex="1" parent="iqE1R30niEO9-FOyuHYD-75">
          <mxGeometry y="189" width="208" height="29" as="geometry" />
        </mxCell>
        <mxCell id="iqE1R30niEO9-FOyuHYD-82" value="X_PATTERN" style="text;strokeColor=none;fillColor=none;align=left;verticalAlign=top;spacingLeft=4;spacingRight=4;overflow=hidden;rotatable=0;points=[[0,0.5],[1,0.5]];portConstraint=eastwest;" vertex="1" parent="iqE1R30niEO9-FOyuHYD-75">
          <mxGeometry y="218" width="208" height="29" as="geometry" />
        </mxCell>
        <mxCell id="iqE1R30niEO9-FOyuHYD-83" value="BORDER" style="text;strokeColor=none;fillColor=none;align=left;verticalAlign=top;spacingLeft=4;spacingRight=4;overflow=hidden;rotatable=0;points=[[0,0.5],[1,0.5]];portConstraint=eastwest;" vertex="1" parent="iqE1R30niEO9-FOyuHYD-75">
          <mxGeometry y="247" width="208" height="29" as="geometry" />
        </mxCell>
        <mxCell id="iqE1R30niEO9-FOyuHYD-84" value="CENTER_SQUARE" style="text;strokeColor=none;fillColor=none;align=left;verticalAlign=top;spacingLeft=4;spacingRight=4;overflow=hidden;rotatable=0;points=[[0,0.5],[1,0.5]];portConstraint=eastwest;" vertex="1" parent="iqE1R30niEO9-FOyuHYD-75">
          <mxGeometry y="276" width="208" height="29" as="geometry" />
        </mxCell>
        <mxCell id="iqE1R30niEO9-FOyuHYD-85" value="CUSTOM" style="text;strokeColor=none;fillColor=none;align=left;verticalAlign=top;spacingLeft=4;spacingRight=4;overflow=hidden;rotatable=0;points=[[0,0.5],[1,0.5]];portConstraint=eastwest;" vertex="1" parent="iqE1R30niEO9-FOyuHYD-75">
          <mxGeometry y="305" width="208" height="29" as="geometry" />
        </mxCell>
        <mxCell id="iqE1R30niEO9-FOyuHYD-86" style="line;strokeWidth=1;fillColor=none;align=left;verticalAlign=middle;spacingTop=-1;spacingLeft=3;spacingRight=3;rotatable=0;labelPosition=right;points=[];portConstraint=eastwest;strokeColor=inherit;" vertex="1" parent="iqE1R30niEO9-FOyuHYD-75">
          <mxGeometry y="334" width="208" height="15" as="geometry" />
        </mxCell>
        <mxCell id="iqE1R30niEO9-FOyuHYD-87" value="WinningPattern" style="swimlane;fontStyle=1;align=center;verticalAlign=top;childLayout=stackLayout;horizontal=1;startSize=29.333333333333332;horizontalStack=0;resizeParent=1;resizeParentMax=0;resizeLast=0;collapsible=0;marginBottom=0;" vertex="1" parent="1">
          <mxGeometry x="1269" y="2146" width="489" height="356.3333333333333" as="geometry" />
        </mxCell>
        <mxCell id="iqE1R30niEO9-FOyuHYD-88" value="-String name" style="text;strokeColor=none;fillColor=none;align=left;verticalAlign=top;spacingLeft=4;spacingRight=4;overflow=hidden;rotatable=0;points=[[0,0.5],[1,0.5]];portConstraint=eastwest;" vertex="1" parent="iqE1R30niEO9-FOyuHYD-87">
          <mxGeometry y="29.333333333333332" width="489" height="29" as="geometry" />
        </mxCell>
        <mxCell id="iqE1R30niEO9-FOyuHYD-89" value="-PatternType type" style="text;strokeColor=none;fillColor=none;align=left;verticalAlign=top;spacingLeft=4;spacingRight=4;overflow=hidden;rotatable=0;points=[[0,0.5],[1,0.5]];portConstraint=eastwest;" vertex="1" parent="iqE1R30niEO9-FOyuHYD-87">
          <mxGeometry y="58.33333333333333" width="489" height="29" as="geometry" />
        </mxCell>
        <mxCell id="iqE1R30niEO9-FOyuHYD-90" value="-List&lt;Position&gt; requiredPositions" style="text;strokeColor=none;fillColor=none;align=left;verticalAlign=top;spacingLeft=4;spacingRight=4;overflow=hidden;rotatable=0;points=[[0,0.5],[1,0.5]];portConstraint=eastwest;" vertex="1" parent="iqE1R30niEO9-FOyuHYD-87">
          <mxGeometry y="87.33333333333333" width="489" height="29" as="geometry" />
        </mxCell>
        <mxCell id="iqE1R30niEO9-FOyuHYD-91" value="-int pointValue" style="text;strokeColor=none;fillColor=none;align=left;verticalAlign=top;spacingLeft=4;spacingRight=4;overflow=hidden;rotatable=0;points=[[0,0.5],[1,0.5]];portConstraint=eastwest;" vertex="1" parent="iqE1R30niEO9-FOyuHYD-87">
          <mxGeometry y="116.33333333333333" width="489" height="29" as="geometry" />
        </mxCell>
        <mxCell id="iqE1R30niEO9-FOyuHYD-92" style="line;strokeWidth=1;fillColor=none;align=left;verticalAlign=middle;spacingTop=-1;spacingLeft=3;spacingRight=3;rotatable=0;labelPosition=right;points=[];portConstraint=eastwest;strokeColor=inherit;" vertex="1" parent="iqE1R30niEO9-FOyuHYD-87">
          <mxGeometry y="145.33333333333331" width="489" height="8" as="geometry" />
        </mxCell>
        <mxCell id="iqE1R30niEO9-FOyuHYD-93" value="+WinningPattern(String, PatternType, List&lt;Position&gt;, int)" style="text;strokeColor=none;fillColor=none;align=left;verticalAlign=top;spacingLeft=4;spacingRight=4;overflow=hidden;rotatable=0;points=[[0,0.5],[1,0.5]];portConstraint=eastwest;" vertex="1" parent="iqE1R30niEO9-FOyuHYD-87">
          <mxGeometry y="153.33333333333331" width="489" height="29" as="geometry" />
        </mxCell>
        <mxCell id="iqE1R30niEO9-FOyuHYD-94" value="+String getName()" style="text;strokeColor=none;fillColor=none;align=left;verticalAlign=top;spacingLeft=4;spacingRight=4;overflow=hidden;rotatable=0;points=[[0,0.5],[1,0.5]];portConstraint=eastwest;" vertex="1" parent="iqE1R30niEO9-FOyuHYD-87">
          <mxGeometry y="182.33333333333331" width="489" height="29" as="geometry" />
        </mxCell>
        <mxCell id="iqE1R30niEO9-FOyuHYD-95" value="+PatternType getType()" style="text;strokeColor=none;fillColor=none;align=left;verticalAlign=top;spacingLeft=4;spacingRight=4;overflow=hidden;rotatable=0;points=[[0,0.5],[1,0.5]];portConstraint=eastwest;" vertex="1" parent="iqE1R30niEO9-FOyuHYD-87">
          <mxGeometry y="211.33333333333331" width="489" height="29" as="geometry" />
        </mxCell>
        <mxCell id="iqE1R30niEO9-FOyuHYD-96" value="+List&lt;Position&gt; getRequiredPositions()" style="text;strokeColor=none;fillColor=none;align=left;verticalAlign=top;spacingLeft=4;spacingRight=4;overflow=hidden;rotatable=0;points=[[0,0.5],[1,0.5]];portConstraint=eastwest;" vertex="1" parent="iqE1R30niEO9-FOyuHYD-87">
          <mxGeometry y="240.33333333333331" width="489" height="29" as="geometry" />
        </mxCell>
        <mxCell id="iqE1R30niEO9-FOyuHYD-97" value="+int getPointValue()" style="text;strokeColor=none;fillColor=none;align=left;verticalAlign=top;spacingLeft=4;spacingRight=4;overflow=hidden;rotatable=0;points=[[0,0.5],[1,0.5]];portConstraint=eastwest;" vertex="1" parent="iqE1R30niEO9-FOyuHYD-87">
          <mxGeometry y="269.3333333333333" width="489" height="29" as="geometry" />
        </mxCell>
        <mxCell id="iqE1R30niEO9-FOyuHYD-98" value="+boolean isValidForBoardSize(int)" style="text;strokeColor=none;fillColor=none;align=left;verticalAlign=top;spacingLeft=4;spacingRight=4;overflow=hidden;rotatable=0;points=[[0,0.5],[1,0.5]];portConstraint=eastwest;" vertex="1" parent="iqE1R30niEO9-FOyuHYD-87">
          <mxGeometry y="298.3333333333333" width="489" height="29" as="geometry" />
        </mxCell>
        <mxCell id="iqE1R30niEO9-FOyuHYD-99" value="+String toString()" style="text;strokeColor=none;fillColor=none;align=left;verticalAlign=top;spacingLeft=4;spacingRight=4;overflow=hidden;rotatable=0;points=[[0,0.5],[1,0.5]];portConstraint=eastwest;" vertex="1" parent="iqE1R30niEO9-FOyuHYD-87">
          <mxGeometry y="327.3333333333333" width="489" height="29" as="geometry" />
        </mxCell>
        <mxCell id="iqE1R30niEO9-FOyuHYD-100" value="&lt;&lt;utility&gt;&gt;&#xa;StandardPatterns" style="swimlane;fontStyle=1;align=center;verticalAlign=top;childLayout=stackLayout;horizontal=1;startSize=49.125;horizontalStack=0;resizeParent=1;resizeParentMax=0;resizeLast=0;collapsible=0;marginBottom=0;" vertex="1" parent="1">
          <mxGeometry x="105" y="1686" width="450" height="255.125" as="geometry" />
        </mxCell>
        <mxCell id="iqE1R30niEO9-FOyuHYD-101" style="line;strokeWidth=1;fillColor=none;align=left;verticalAlign=middle;spacingTop=-1;spacingLeft=3;spacingRight=3;rotatable=0;labelPosition=right;points=[];portConstraint=eastwest;strokeColor=inherit;" vertex="1" parent="iqE1R30niEO9-FOyuHYD-100">
          <mxGeometry y="49.125" width="450" height="8" as="geometry" />
        </mxCell>
        <mxCell id="iqE1R30niEO9-FOyuHYD-102" value="+WinningPattern createFullCard(int)" style="text;strokeColor=none;fillColor=none;align=left;verticalAlign=top;spacingLeft=4;spacingRight=4;overflow=hidden;rotatable=0;points=[[0,0.5],[1,0.5]];portConstraint=eastwest;" vertex="1" parent="iqE1R30niEO9-FOyuHYD-100">
          <mxGeometry y="57.125" width="450" height="33" as="geometry" />
        </mxCell>
        <mxCell id="iqE1R30niEO9-FOyuHYD-103" value="+WinningPattern createFourCorners(int)" style="text;strokeColor=none;fillColor=none;align=left;verticalAlign=top;spacingLeft=4;spacingRight=4;overflow=hidden;rotatable=0;points=[[0,0.5],[1,0.5]];portConstraint=eastwest;" vertex="1" parent="iqE1R30niEO9-FOyuHYD-100">
          <mxGeometry y="90.125" width="450" height="33" as="geometry" />
        </mxCell>
        <mxCell id="iqE1R30niEO9-FOyuHYD-104" value="+WinningPattern createHorizontalLine(int, int)" style="text;strokeColor=none;fillColor=none;align=left;verticalAlign=top;spacingLeft=4;spacingRight=4;overflow=hidden;rotatable=0;points=[[0,0.5],[1,0.5]];portConstraint=eastwest;" vertex="1" parent="iqE1R30niEO9-FOyuHYD-100">
          <mxGeometry y="123.125" width="450" height="33" as="geometry" />
        </mxCell>
        <mxCell id="iqE1R30niEO9-FOyuHYD-105" value="+WinningPattern createVerticalLine(int, int)" style="text;strokeColor=none;fillColor=none;align=left;verticalAlign=top;spacingLeft=4;spacingRight=4;overflow=hidden;rotatable=0;points=[[0,0.5],[1,0.5]];portConstraint=eastwest;" vertex="1" parent="iqE1R30niEO9-FOyuHYD-100">
          <mxGeometry y="156.125" width="450" height="33" as="geometry" />
        </mxCell>
        <mxCell id="iqE1R30niEO9-FOyuHYD-106" value="+WinningPattern createDiagonalLine(int, boolean)" style="text;strokeColor=none;fillColor=none;align=left;verticalAlign=top;spacingLeft=4;spacingRight=4;overflow=hidden;rotatable=0;points=[[0,0.5],[1,0.5]];portConstraint=eastwest;" vertex="1" parent="iqE1R30niEO9-FOyuHYD-100">
          <mxGeometry y="189.125" width="450" height="33" as="geometry" />
        </mxCell>
        <mxCell id="iqE1R30niEO9-FOyuHYD-107" value="+List&lt;WinningPattern&gt; getAllStandardPatterns(int)" style="text;strokeColor=none;fillColor=none;align=left;verticalAlign=top;spacingLeft=4;spacingRight=4;overflow=hidden;rotatable=0;points=[[0,0.5],[1,0.5]];portConstraint=eastwest;" vertex="1" parent="iqE1R30niEO9-FOyuHYD-100">
          <mxGeometry y="222.125" width="450" height="33" as="geometry" />
        </mxCell>
        <mxCell id="iqE1R30niEO9-FOyuHYD-108" value="PlayerBoard" style="swimlane;fontStyle=1;align=center;verticalAlign=top;childLayout=stackLayout;horizontal=1;startSize=28;horizontalStack=0;resizeParent=1;resizeParentMax=0;resizeLast=0;collapsible=0;marginBottom=0;" vertex="1" parent="1">
          <mxGeometry x="862" y="981" width="492" height="456" as="geometry" />
        </mxCell>
        <mxCell id="iqE1R30niEO9-FOyuHYD-109" value="-LoteriaCard[][] grid" style="text;strokeColor=none;fillColor=none;align=left;verticalAlign=top;spacingLeft=4;spacingRight=4;overflow=hidden;rotatable=0;points=[[0,0.5],[1,0.5]];portConstraint=eastwest;" vertex="1" parent="iqE1R30niEO9-FOyuHYD-108">
          <mxGeometry y="28" width="492" height="28" as="geometry" />
        </mxCell>
        <mxCell id="iqE1R30niEO9-FOyuHYD-110" value="-boolean[][] markers" style="text;strokeColor=none;fillColor=none;align=left;verticalAlign=top;spacingLeft=4;spacingRight=4;overflow=hidden;rotatable=0;points=[[0,0.5],[1,0.5]];portConstraint=eastwest;" vertex="1" parent="iqE1R30niEO9-FOyuHYD-108">
          <mxGeometry y="56" width="492" height="28" as="geometry" />
        </mxCell>
        <mxCell id="iqE1R30niEO9-FOyuHYD-111" value="-int size" style="text;strokeColor=none;fillColor=none;align=left;verticalAlign=top;spacingLeft=4;spacingRight=4;overflow=hidden;rotatable=0;points=[[0,0.5],[1,0.5]];portConstraint=eastwest;" vertex="1" parent="iqE1R30niEO9-FOyuHYD-108">
          <mxGeometry y="84" width="492" height="28" as="geometry" />
        </mxCell>
        <mxCell id="iqE1R30niEO9-FOyuHYD-112" value="-Player owner" style="text;strokeColor=none;fillColor=none;align=left;verticalAlign=top;spacingLeft=4;spacingRight=4;overflow=hidden;rotatable=0;points=[[0,0.5],[1,0.5]];portConstraint=eastwest;" vertex="1" parent="iqE1R30niEO9-FOyuHYD-108">
          <mxGeometry y="112" width="492" height="28" as="geometry" />
        </mxCell>
        <mxCell id="iqE1R30niEO9-FOyuHYD-113" style="line;strokeWidth=1;fillColor=none;align=left;verticalAlign=middle;spacingTop=-1;spacingLeft=3;spacingRight=3;rotatable=0;labelPosition=right;points=[];portConstraint=eastwest;strokeColor=inherit;" vertex="1" parent="iqE1R30niEO9-FOyuHYD-108">
          <mxGeometry y="140" width="492" height="8" as="geometry" />
        </mxCell>
        <mxCell id="iqE1R30niEO9-FOyuHYD-114" value="+PlayerBoard(int, Player)" style="text;strokeColor=none;fillColor=none;align=left;verticalAlign=top;spacingLeft=4;spacingRight=4;overflow=hidden;rotatable=0;points=[[0,0.5],[1,0.5]];portConstraint=eastwest;" vertex="1" parent="iqE1R30niEO9-FOyuHYD-108">
          <mxGeometry y="148" width="492" height="28" as="geometry" />
        </mxCell>
        <mxCell id="iqE1R30niEO9-FOyuHYD-115" value="+void generateBoard(Deck)" style="text;strokeColor=none;fillColor=none;align=left;verticalAlign=top;spacingLeft=4;spacingRight=4;overflow=hidden;rotatable=0;points=[[0,0.5],[1,0.5]];portConstraint=eastwest;" vertex="1" parent="iqE1R30niEO9-FOyuHYD-108">
          <mxGeometry y="176" width="492" height="28" as="geometry" />
        </mxCell>
        <mxCell id="iqE1R30niEO9-FOyuHYD-116" value="+boolean markCard(LoteriaCard)" style="text;strokeColor=none;fillColor=none;align=left;verticalAlign=top;spacingLeft=4;spacingRight=4;overflow=hidden;rotatable=0;points=[[0,0.5],[1,0.5]];portConstraint=eastwest;" vertex="1" parent="iqE1R30niEO9-FOyuHYD-108">
          <mxGeometry y="204" width="492" height="28" as="geometry" />
        </mxCell>
        <mxCell id="iqE1R30niEO9-FOyuHYD-117" value="+boolean unmarkCard(LoteriaCard)" style="text;strokeColor=none;fillColor=none;align=left;verticalAlign=top;spacingLeft=4;spacingRight=4;overflow=hidden;rotatable=0;points=[[0,0.5],[1,0.5]];portConstraint=eastwest;" vertex="1" parent="iqE1R30niEO9-FOyuHYD-108">
          <mxGeometry y="232" width="492" height="28" as="geometry" />
        </mxCell>
        <mxCell id="iqE1R30niEO9-FOyuHYD-118" value="+boolean hasCard(LoteriaCard)" style="text;strokeColor=none;fillColor=none;align=left;verticalAlign=top;spacingLeft=4;spacingRight=4;overflow=hidden;rotatable=0;points=[[0,0.5],[1,0.5]];portConstraint=eastwest;" vertex="1" parent="iqE1R30niEO9-FOyuHYD-108">
          <mxGeometry y="260" width="492" height="28" as="geometry" />
        </mxCell>
        <mxCell id="iqE1R30niEO9-FOyuHYD-119" value="+boolean isMarked(int, int)" style="text;strokeColor=none;fillColor=none;align=left;verticalAlign=top;spacingLeft=4;spacingRight=4;overflow=hidden;rotatable=0;points=[[0,0.5],[1,0.5]];portConstraint=eastwest;" vertex="1" parent="iqE1R30niEO9-FOyuHYD-108">
          <mxGeometry y="288" width="492" height="28" as="geometry" />
        </mxCell>
        <mxCell id="iqE1R30niEO9-FOyuHYD-120" value="+LoteriaCard getCard(int, int)" style="text;strokeColor=none;fillColor=none;align=left;verticalAlign=top;spacingLeft=4;spacingRight=4;overflow=hidden;rotatable=0;points=[[0,0.5],[1,0.5]];portConstraint=eastwest;" vertex="1" parent="iqE1R30niEO9-FOyuHYD-108">
          <mxGeometry y="316" width="492" height="28" as="geometry" />
        </mxCell>
        <mxCell id="iqE1R30niEO9-FOyuHYD-121" value="+boolean checkPattern(WinningPattern, List&lt;LoteriaCard&gt;)" style="text;strokeColor=none;fillColor=none;align=left;verticalAlign=top;spacingLeft=4;spacingRight=4;overflow=hidden;rotatable=0;points=[[0,0.5],[1,0.5]];portConstraint=eastwest;" vertex="1" parent="iqE1R30niEO9-FOyuHYD-108">
          <mxGeometry y="344" width="492" height="28" as="geometry" />
        </mxCell>
        <mxCell id="iqE1R30niEO9-FOyuHYD-122" value="+int getMarkedCount()" style="text;strokeColor=none;fillColor=none;align=left;verticalAlign=top;spacingLeft=4;spacingRight=4;overflow=hidden;rotatable=0;points=[[0,0.5],[1,0.5]];portConstraint=eastwest;" vertex="1" parent="iqE1R30niEO9-FOyuHYD-108">
          <mxGeometry y="372" width="492" height="28" as="geometry" />
        </mxCell>
        <mxCell id="iqE1R30niEO9-FOyuHYD-123" value="+int getSize()" style="text;strokeColor=none;fillColor=none;align=left;verticalAlign=top;spacingLeft=4;spacingRight=4;overflow=hidden;rotatable=0;points=[[0,0.5],[1,0.5]];portConstraint=eastwest;" vertex="1" parent="iqE1R30niEO9-FOyuHYD-108">
          <mxGeometry y="400" width="492" height="28" as="geometry" />
        </mxCell>
        <mxCell id="iqE1R30niEO9-FOyuHYD-124" value="+Player getOwner()" style="text;strokeColor=none;fillColor=none;align=left;verticalAlign=top;spacingLeft=4;spacingRight=4;overflow=hidden;rotatable=0;points=[[0,0.5],[1,0.5]];portConstraint=eastwest;" vertex="1" parent="iqE1R30niEO9-FOyuHYD-108">
          <mxGeometry y="428" width="492" height="28" as="geometry" />
        </mxCell>
        <mxCell id="iqE1R30niEO9-FOyuHYD-125" value="Player" style="swimlane;fontStyle=1;align=center;verticalAlign=top;childLayout=stackLayout;horizontal=1;startSize=27.764705882352942;horizontalStack=0;resizeParent=1;resizeParentMax=0;resizeLast=0;collapsible=0;marginBottom=0;" vertex="1" parent="1">
          <mxGeometry x="2269" y="1581" width="509" height="483.7647058823529" as="geometry" />
        </mxCell>
        <mxCell id="iqE1R30niEO9-FOyuHYD-126" value="-String name" style="text;strokeColor=none;fillColor=none;align=left;verticalAlign=top;spacingLeft=4;spacingRight=4;overflow=hidden;rotatable=0;points=[[0,0.5],[1,0.5]];portConstraint=eastwest;" vertex="1" parent="iqE1R30niEO9-FOyuHYD-125">
          <mxGeometry y="27.764705882352942" width="509" height="28" as="geometry" />
        </mxCell>
        <mxCell id="iqE1R30niEO9-FOyuHYD-127" value="-List&lt;PlayerBoard&gt; boards" style="text;strokeColor=none;fillColor=none;align=left;verticalAlign=top;spacingLeft=4;spacingRight=4;overflow=hidden;rotatable=0;points=[[0,0.5],[1,0.5]];portConstraint=eastwest;" vertex="1" parent="iqE1R30niEO9-FOyuHYD-125">
          <mxGeometry y="55.76470588235294" width="509" height="28" as="geometry" />
        </mxCell>
        <mxCell id="iqE1R30niEO9-FOyuHYD-128" value="-int score" style="text;strokeColor=none;fillColor=none;align=left;verticalAlign=top;spacingLeft=4;spacingRight=4;overflow=hidden;rotatable=0;points=[[0,0.5],[1,0.5]];portConstraint=eastwest;" vertex="1" parent="iqE1R30niEO9-FOyuHYD-125">
          <mxGeometry y="83.76470588235294" width="509" height="28" as="geometry" />
        </mxCell>
        <mxCell id="iqE1R30niEO9-FOyuHYD-129" value="-boolean isReady" style="text;strokeColor=none;fillColor=none;align=left;verticalAlign=top;spacingLeft=4;spacingRight=4;overflow=hidden;rotatable=0;points=[[0,0.5],[1,0.5]];portConstraint=eastwest;" vertex="1" parent="iqE1R30niEO9-FOyuHYD-125">
          <mxGeometry y="111.76470588235294" width="509" height="28" as="geometry" />
        </mxCell>
        <mxCell id="iqE1R30niEO9-FOyuHYD-130" style="line;strokeWidth=1;fillColor=none;align=left;verticalAlign=middle;spacingTop=-1;spacingLeft=3;spacingRight=3;rotatable=0;labelPosition=right;points=[];portConstraint=eastwest;strokeColor=inherit;" vertex="1" parent="iqE1R30niEO9-FOyuHYD-125">
          <mxGeometry y="139.76470588235293" width="509" height="8" as="geometry" />
        </mxCell>
        <mxCell id="iqE1R30niEO9-FOyuHYD-131" value="+Player(String)" style="text;strokeColor=none;fillColor=none;align=left;verticalAlign=top;spacingLeft=4;spacingRight=4;overflow=hidden;rotatable=0;points=[[0,0.5],[1,0.5]];portConstraint=eastwest;" vertex="1" parent="iqE1R30niEO9-FOyuHYD-125">
          <mxGeometry y="147.76470588235293" width="509" height="28" as="geometry" />
        </mxCell>
        <mxCell id="iqE1R30niEO9-FOyuHYD-132" value="+String getName()" style="text;strokeColor=none;fillColor=none;align=left;verticalAlign=top;spacingLeft=4;spacingRight=4;overflow=hidden;rotatable=0;points=[[0,0.5],[1,0.5]];portConstraint=eastwest;" vertex="1" parent="iqE1R30niEO9-FOyuHYD-125">
          <mxGeometry y="175.76470588235293" width="509" height="28" as="geometry" />
        </mxCell>
        <mxCell id="iqE1R30niEO9-FOyuHYD-133" value="+void addBoard(PlayerBoard)" style="text;strokeColor=none;fillColor=none;align=left;verticalAlign=top;spacingLeft=4;spacingRight=4;overflow=hidden;rotatable=0;points=[[0,0.5],[1,0.5]];portConstraint=eastwest;" vertex="1" parent="iqE1R30niEO9-FOyuHYD-125">
          <mxGeometry y="203.76470588235293" width="509" height="28" as="geometry" />
        </mxCell>
        <mxCell id="iqE1R30niEO9-FOyuHYD-134" value="+List&lt;PlayerBoard&gt; getBoards()" style="text;strokeColor=none;fillColor=none;align=left;verticalAlign=top;spacingLeft=4;spacingRight=4;overflow=hidden;rotatable=0;points=[[0,0.5],[1,0.5]];portConstraint=eastwest;" vertex="1" parent="iqE1R30niEO9-FOyuHYD-125">
          <mxGeometry y="231.76470588235293" width="509" height="28" as="geometry" />
        </mxCell>
        <mxCell id="iqE1R30niEO9-FOyuHYD-135" value="+void markCard(LoteriaCard)" style="text;strokeColor=none;fillColor=none;align=left;verticalAlign=top;spacingLeft=4;spacingRight=4;overflow=hidden;rotatable=0;points=[[0,0.5],[1,0.5]];portConstraint=eastwest;" vertex="1" parent="iqE1R30niEO9-FOyuHYD-125">
          <mxGeometry y="259.7647058823529" width="509" height="28" as="geometry" />
        </mxCell>
        <mxCell id="iqE1R30niEO9-FOyuHYD-136" value="+boolean hasWinningPattern(WinningPattern, List&lt;LoteriaCard&gt;)" style="text;strokeColor=none;fillColor=none;align=left;verticalAlign=top;spacingLeft=4;spacingRight=4;overflow=hidden;rotatable=0;points=[[0,0.5],[1,0.5]];portConstraint=eastwest;" vertex="1" parent="iqE1R30niEO9-FOyuHYD-125">
          <mxGeometry y="287.7647058823529" width="509" height="28" as="geometry" />
        </mxCell>
        <mxCell id="iqE1R30niEO9-FOyuHYD-137" value="+int getScore()" style="text;strokeColor=none;fillColor=none;align=left;verticalAlign=top;spacingLeft=4;spacingRight=4;overflow=hidden;rotatable=0;points=[[0,0.5],[1,0.5]];portConstraint=eastwest;" vertex="1" parent="iqE1R30niEO9-FOyuHYD-125">
          <mxGeometry y="315.7647058823529" width="509" height="28" as="geometry" />
        </mxCell>
        <mxCell id="iqE1R30niEO9-FOyuHYD-138" value="+void addScore(int)" style="text;strokeColor=none;fillColor=none;align=left;verticalAlign=top;spacingLeft=4;spacingRight=4;overflow=hidden;rotatable=0;points=[[0,0.5],[1,0.5]];portConstraint=eastwest;" vertex="1" parent="iqE1R30niEO9-FOyuHYD-125">
          <mxGeometry y="343.7647058823529" width="509" height="28" as="geometry" />
        </mxCell>
        <mxCell id="iqE1R30niEO9-FOyuHYD-139" value="+void setReady(boolean)" style="text;strokeColor=none;fillColor=none;align=left;verticalAlign=top;spacingLeft=4;spacingRight=4;overflow=hidden;rotatable=0;points=[[0,0.5],[1,0.5]];portConstraint=eastwest;" vertex="1" parent="iqE1R30niEO9-FOyuHYD-125">
          <mxGeometry y="371.7647058823529" width="509" height="28" as="geometry" />
        </mxCell>
        <mxCell id="iqE1R30niEO9-FOyuHYD-140" value="+boolean isReady()" style="text;strokeColor=none;fillColor=none;align=left;verticalAlign=top;spacingLeft=4;spacingRight=4;overflow=hidden;rotatable=0;points=[[0,0.5],[1,0.5]];portConstraint=eastwest;" vertex="1" parent="iqE1R30niEO9-FOyuHYD-125">
          <mxGeometry y="399.7647058823529" width="509" height="28" as="geometry" />
        </mxCell>
        <mxCell id="iqE1R30niEO9-FOyuHYD-141" value="+boolean equals(Object)" style="text;strokeColor=none;fillColor=none;align=left;verticalAlign=top;spacingLeft=4;spacingRight=4;overflow=hidden;rotatable=0;points=[[0,0.5],[1,0.5]];portConstraint=eastwest;" vertex="1" parent="iqE1R30niEO9-FOyuHYD-125">
          <mxGeometry y="427.7647058823529" width="509" height="28" as="geometry" />
        </mxCell>
        <mxCell id="iqE1R30niEO9-FOyuHYD-142" value="+int hashCode()" style="text;strokeColor=none;fillColor=none;align=left;verticalAlign=top;spacingLeft=4;spacingRight=4;overflow=hidden;rotatable=0;points=[[0,0.5],[1,0.5]];portConstraint=eastwest;" vertex="1" parent="iqE1R30niEO9-FOyuHYD-125">
          <mxGeometry y="455.7647058823529" width="509" height="28" as="geometry" />
        </mxCell>
        <mxCell id="iqE1R30niEO9-FOyuHYD-143" value="&lt;&lt;enumeration&gt;&gt;&#xa;GameState" style="swimlane;fontStyle=1;align=center;verticalAlign=top;childLayout=stackLayout;horizontal=1;startSize=48;horizontalStack=0;resizeParent=1;resizeParentMax=0;resizeLast=0;collapsible=0;marginBottom=0;" vertex="1" parent="1">
          <mxGeometry x="3268" y="1689" width="244" height="256" as="geometry" />
        </mxCell>
        <mxCell id="iqE1R30niEO9-FOyuHYD-144" value="WAITING_FOR_PLAYERS" style="text;strokeColor=none;fillColor=none;align=left;verticalAlign=top;spacingLeft=4;spacingRight=4;overflow=hidden;rotatable=0;points=[[0,0.5],[1,0.5]];portConstraint=eastwest;" vertex="1" parent="iqE1R30niEO9-FOyuHYD-143">
          <mxGeometry y="48" width="244" height="32" as="geometry" />
        </mxCell>
        <mxCell id="iqE1R30niEO9-FOyuHYD-145" value="READY_TO_START" style="text;strokeColor=none;fillColor=none;align=left;verticalAlign=top;spacingLeft=4;spacingRight=4;overflow=hidden;rotatable=0;points=[[0,0.5],[1,0.5]];portConstraint=eastwest;" vertex="1" parent="iqE1R30niEO9-FOyuHYD-143">
          <mxGeometry y="80" width="244" height="32" as="geometry" />
        </mxCell>
        <mxCell id="iqE1R30niEO9-FOyuHYD-146" value="IN_PROGRESS" style="text;strokeColor=none;fillColor=none;align=left;verticalAlign=top;spacingLeft=4;spacingRight=4;overflow=hidden;rotatable=0;points=[[0,0.5],[1,0.5]];portConstraint=eastwest;" vertex="1" parent="iqE1R30niEO9-FOyuHYD-143">
          <mxGeometry y="112" width="244" height="32" as="geometry" />
        </mxCell>
        <mxCell id="iqE1R30niEO9-FOyuHYD-147" value="PAUSED" style="text;strokeColor=none;fillColor=none;align=left;verticalAlign=top;spacingLeft=4;spacingRight=4;overflow=hidden;rotatable=0;points=[[0,0.5],[1,0.5]];portConstraint=eastwest;" vertex="1" parent="iqE1R30niEO9-FOyuHYD-143">
          <mxGeometry y="144" width="244" height="32" as="geometry" />
        </mxCell>
        <mxCell id="iqE1R30niEO9-FOyuHYD-148" value="FINISHED" style="text;strokeColor=none;fillColor=none;align=left;verticalAlign=top;spacingLeft=4;spacingRight=4;overflow=hidden;rotatable=0;points=[[0,0.5],[1,0.5]];portConstraint=eastwest;" vertex="1" parent="iqE1R30niEO9-FOyuHYD-143">
          <mxGeometry y="176" width="244" height="32" as="geometry" />
        </mxCell>
        <mxCell id="iqE1R30niEO9-FOyuHYD-149" value="CANCELLED" style="text;strokeColor=none;fillColor=none;align=left;verticalAlign=top;spacingLeft=4;spacingRight=4;overflow=hidden;rotatable=0;points=[[0,0.5],[1,0.5]];portConstraint=eastwest;" vertex="1" parent="iqE1R30niEO9-FOyuHYD-143">
          <mxGeometry y="208" width="244" height="32" as="geometry" />
        </mxCell>
        <mxCell id="iqE1R30niEO9-FOyuHYD-150" style="line;strokeWidth=1;fillColor=none;align=left;verticalAlign=middle;spacingTop=-1;spacingLeft=3;spacingRight=3;rotatable=0;labelPosition=right;points=[];portConstraint=eastwest;strokeColor=inherit;" vertex="1" parent="iqE1R30niEO9-FOyuHYD-143">
          <mxGeometry y="240" width="244" height="16" as="geometry" />
        </mxCell>
        <mxCell id="iqE1R30niEO9-FOyuHYD-151" value="LoteriaGame" style="swimlane;fontStyle=1;align=center;verticalAlign=top;childLayout=stackLayout;horizontal=1;startSize=26.90909090909091;horizontalStack=0;resizeParent=1;resizeParentMax=0;resizeLast=0;collapsible=0;marginBottom=0;" vertex="1" parent="1">
          <mxGeometry x="2805" y="909" width="401" height="601.9090909090909" as="geometry" />
        </mxCell>
        <mxCell id="iqE1R30niEO9-FOyuHYD-152" value="-Deck deck" style="text;strokeColor=none;fillColor=none;align=left;verticalAlign=top;spacingLeft=4;spacingRight=4;overflow=hidden;rotatable=0;points=[[0,0.5],[1,0.5]];portConstraint=eastwest;" vertex="1" parent="iqE1R30niEO9-FOyuHYD-151">
          <mxGeometry y="26.90909090909091" width="401" height="27" as="geometry" />
        </mxCell>
        <mxCell id="iqE1R30niEO9-FOyuHYD-153" value="-List&lt;Player&gt; players" style="text;strokeColor=none;fillColor=none;align=left;verticalAlign=top;spacingLeft=4;spacingRight=4;overflow=hidden;rotatable=0;points=[[0,0.5],[1,0.5]];portConstraint=eastwest;" vertex="1" parent="iqE1R30niEO9-FOyuHYD-151">
          <mxGeometry y="53.90909090909091" width="401" height="27" as="geometry" />
        </mxCell>
        <mxCell id="iqE1R30niEO9-FOyuHYD-154" value="-Caller caller" style="text;strokeColor=none;fillColor=none;align=left;verticalAlign=top;spacingLeft=4;spacingRight=4;overflow=hidden;rotatable=0;points=[[0,0.5],[1,0.5]];portConstraint=eastwest;" vertex="1" parent="iqE1R30niEO9-FOyuHYD-151">
          <mxGeometry y="80.9090909090909" width="401" height="27" as="geometry" />
        </mxCell>
        <mxCell id="iqE1R30niEO9-FOyuHYD-155" value="-GameState gameState" style="text;strokeColor=none;fillColor=none;align=left;verticalAlign=top;spacingLeft=4;spacingRight=4;overflow=hidden;rotatable=0;points=[[0,0.5],[1,0.5]];portConstraint=eastwest;" vertex="1" parent="iqE1R30niEO9-FOyuHYD-151">
          <mxGeometry y="107.9090909090909" width="401" height="27" as="geometry" />
        </mxCell>
        <mxCell id="iqE1R30niEO9-FOyuHYD-156" value="-List&lt;WinningPattern&gt; patterns" style="text;strokeColor=none;fillColor=none;align=left;verticalAlign=top;spacingLeft=4;spacingRight=4;overflow=hidden;rotatable=0;points=[[0,0.5],[1,0.5]];portConstraint=eastwest;" vertex="1" parent="iqE1R30niEO9-FOyuHYD-151">
          <mxGeometry y="134.9090909090909" width="401" height="27" as="geometry" />
        </mxCell>
        <mxCell id="iqE1R30niEO9-FOyuHYD-157" value="-LoteriaCard currentCard" style="text;strokeColor=none;fillColor=none;align=left;verticalAlign=top;spacingLeft=4;spacingRight=4;overflow=hidden;rotatable=0;points=[[0,0.5],[1,0.5]];portConstraint=eastwest;" vertex="1" parent="iqE1R30niEO9-FOyuHYD-151">
          <mxGeometry y="161.9090909090909" width="401" height="27" as="geometry" />
        </mxCell>
        <mxCell id="iqE1R30niEO9-FOyuHYD-158" value="-List&lt;LoteriaCard&gt; calledCards" style="text;strokeColor=none;fillColor=none;align=left;verticalAlign=top;spacingLeft=4;spacingRight=4;overflow=hidden;rotatable=0;points=[[0,0.5],[1,0.5]];portConstraint=eastwest;" vertex="1" parent="iqE1R30niEO9-FOyuHYD-151">
          <mxGeometry y="188.9090909090909" width="401" height="27" as="geometry" />
        </mxCell>
        <mxCell id="iqE1R30niEO9-FOyuHYD-159" value="-int maxPlayers" style="text;strokeColor=none;fillColor=none;align=left;verticalAlign=top;spacingLeft=4;spacingRight=4;overflow=hidden;rotatable=0;points=[[0,0.5],[1,0.5]];portConstraint=eastwest;" vertex="1" parent="iqE1R30niEO9-FOyuHYD-151">
          <mxGeometry y="215.9090909090909" width="401" height="27" as="geometry" />
        </mxCell>
        <mxCell id="iqE1R30niEO9-FOyuHYD-160" value="-Player winner" style="text;strokeColor=none;fillColor=none;align=left;verticalAlign=top;spacingLeft=4;spacingRight=4;overflow=hidden;rotatable=0;points=[[0,0.5],[1,0.5]];portConstraint=eastwest;" vertex="1" parent="iqE1R30niEO9-FOyuHYD-151">
          <mxGeometry y="242.9090909090909" width="401" height="27" as="geometry" />
        </mxCell>
        <mxCell id="iqE1R30niEO9-FOyuHYD-161" style="line;strokeWidth=1;fillColor=none;align=left;verticalAlign=middle;spacingTop=-1;spacingLeft=3;spacingRight=3;rotatable=0;labelPosition=right;points=[];portConstraint=eastwest;strokeColor=inherit;" vertex="1" parent="iqE1R30niEO9-FOyuHYD-151">
          <mxGeometry y="269.9090909090909" width="401" height="8" as="geometry" />
        </mxCell>
        <mxCell id="iqE1R30niEO9-FOyuHYD-162" value="+LoteriaGame(int)" style="text;strokeColor=none;fillColor=none;align=left;verticalAlign=top;spacingLeft=4;spacingRight=4;overflow=hidden;rotatable=0;points=[[0,0.5],[1,0.5]];portConstraint=eastwest;" vertex="1" parent="iqE1R30niEO9-FOyuHYD-151">
          <mxGeometry y="277.9090909090909" width="401" height="27" as="geometry" />
        </mxCell>
        <mxCell id="iqE1R30niEO9-FOyuHYD-163" value="+Deck getDeck()" style="text;strokeColor=none;fillColor=none;align=left;verticalAlign=top;spacingLeft=4;spacingRight=4;overflow=hidden;rotatable=0;points=[[0,0.5],[1,0.5]];portConstraint=eastwest;" vertex="1" parent="iqE1R30niEO9-FOyuHYD-151">
          <mxGeometry y="304.9090909090909" width="401" height="27" as="geometry" />
        </mxCell>
        <mxCell id="iqE1R30niEO9-FOyuHYD-164" value="+void addPlayer(Player)" style="text;strokeColor=none;fillColor=none;align=left;verticalAlign=top;spacingLeft=4;spacingRight=4;overflow=hidden;rotatable=0;points=[[0,0.5],[1,0.5]];portConstraint=eastwest;" vertex="1" parent="iqE1R30niEO9-FOyuHYD-151">
          <mxGeometry y="331.9090909090909" width="401" height="27" as="geometry" />
        </mxCell>
        <mxCell id="iqE1R30niEO9-FOyuHYD-165" value="+void startGame()" style="text;strokeColor=none;fillColor=none;align=left;verticalAlign=top;spacingLeft=4;spacingRight=4;overflow=hidden;rotatable=0;points=[[0,0.5],[1,0.5]];portConstraint=eastwest;" vertex="1" parent="iqE1R30niEO9-FOyuHYD-151">
          <mxGeometry y="358.9090909090909" width="401" height="27" as="geometry" />
        </mxCell>
        <mxCell id="iqE1R30niEO9-FOyuHYD-166" value="+LoteriaCard callNextCard()" style="text;strokeColor=none;fillColor=none;align=left;verticalAlign=top;spacingLeft=4;spacingRight=4;overflow=hidden;rotatable=0;points=[[0,0.5],[1,0.5]];portConstraint=eastwest;" vertex="1" parent="iqE1R30niEO9-FOyuHYD-151">
          <mxGeometry y="385.9090909090909" width="401" height="27" as="geometry" />
        </mxCell>
        <mxCell id="iqE1R30niEO9-FOyuHYD-167" value="+boolean validateWin(Player, WinningPattern)" style="text;strokeColor=none;fillColor=none;align=left;verticalAlign=top;spacingLeft=4;spacingRight=4;overflow=hidden;rotatable=0;points=[[0,0.5],[1,0.5]];portConstraint=eastwest;" vertex="1" parent="iqE1R30niEO9-FOyuHYD-151">
          <mxGeometry y="412.9090909090909" width="401" height="27" as="geometry" />
        </mxCell>
        <mxCell id="iqE1R30niEO9-FOyuHYD-168" value="+boolean isGameOver()" style="text;strokeColor=none;fillColor=none;align=left;verticalAlign=top;spacingLeft=4;spacingRight=4;overflow=hidden;rotatable=0;points=[[0,0.5],[1,0.5]];portConstraint=eastwest;" vertex="1" parent="iqE1R30niEO9-FOyuHYD-151">
          <mxGeometry y="439.9090909090909" width="401" height="27" as="geometry" />
        </mxCell>
        <mxCell id="iqE1R30niEO9-FOyuHYD-169" value="+Player getWinner()" style="text;strokeColor=none;fillColor=none;align=left;verticalAlign=top;spacingLeft=4;spacingRight=4;overflow=hidden;rotatable=0;points=[[0,0.5],[1,0.5]];portConstraint=eastwest;" vertex="1" parent="iqE1R30niEO9-FOyuHYD-151">
          <mxGeometry y="466.9090909090909" width="401" height="27" as="geometry" />
        </mxCell>
        <mxCell id="iqE1R30niEO9-FOyuHYD-170" value="+LoteriaCard getCurrentCard()" style="text;strokeColor=none;fillColor=none;align=left;verticalAlign=top;spacingLeft=4;spacingRight=4;overflow=hidden;rotatable=0;points=[[0,0.5],[1,0.5]];portConstraint=eastwest;" vertex="1" parent="iqE1R30niEO9-FOyuHYD-151">
          <mxGeometry y="493.9090909090909" width="401" height="27" as="geometry" />
        </mxCell>
        <mxCell id="iqE1R30niEO9-FOyuHYD-171" value="+List&lt;LoteriaCard&gt; getCalledCards()" style="text;strokeColor=none;fillColor=none;align=left;verticalAlign=top;spacingLeft=4;spacingRight=4;overflow=hidden;rotatable=0;points=[[0,0.5],[1,0.5]];portConstraint=eastwest;" vertex="1" parent="iqE1R30niEO9-FOyuHYD-151">
          <mxGeometry y="520.9090909090909" width="401" height="27" as="geometry" />
        </mxCell>
        <mxCell id="iqE1R30niEO9-FOyuHYD-172" value="+List&lt;Player&gt; getPlayers()" style="text;strokeColor=none;fillColor=none;align=left;verticalAlign=top;spacingLeft=4;spacingRight=4;overflow=hidden;rotatable=0;points=[[0,0.5],[1,0.5]];portConstraint=eastwest;" vertex="1" parent="iqE1R30niEO9-FOyuHYD-151">
          <mxGeometry y="547.9090909090909" width="401" height="27" as="geometry" />
        </mxCell>
        <mxCell id="iqE1R30niEO9-FOyuHYD-173" value="+GameState getGameState()" style="text;strokeColor=none;fillColor=none;align=left;verticalAlign=top;spacingLeft=4;spacingRight=4;overflow=hidden;rotatable=0;points=[[0,0.5],[1,0.5]];portConstraint=eastwest;" vertex="1" parent="iqE1R30niEO9-FOyuHYD-151">
          <mxGeometry y="574.9090909090909" width="401" height="27" as="geometry" />
        </mxCell>
        <mxCell id="iqE1R30niEO9-FOyuHYD-174" value="GameResult" style="swimlane;fontStyle=1;align=center;verticalAlign=top;childLayout=stackLayout;horizontal=1;startSize=28.571428571428573;horizontalStack=0;resizeParent=1;resizeParentMax=0;resizeLast=0;collapsible=0;marginBottom=0;" vertex="1" parent="1">
          <mxGeometry x="3673" y="1005" width="505" height="413.57142857142856" as="geometry" />
        </mxCell>
        <mxCell id="iqE1R30niEO9-FOyuHYD-175" value="-Player winner" style="text;strokeColor=none;fillColor=none;align=left;verticalAlign=top;spacingLeft=4;spacingRight=4;overflow=hidden;rotatable=0;points=[[0,0.5],[1,0.5]];portConstraint=eastwest;" vertex="1" parent="iqE1R30niEO9-FOyuHYD-174">
          <mxGeometry y="28.571428571428573" width="505" height="29" as="geometry" />
        </mxCell>
        <mxCell id="iqE1R30niEO9-FOyuHYD-176" value="-List&lt;Player&gt; participants" style="text;strokeColor=none;fillColor=none;align=left;verticalAlign=top;spacingLeft=4;spacingRight=4;overflow=hidden;rotatable=0;points=[[0,0.5],[1,0.5]];portConstraint=eastwest;" vertex="1" parent="iqE1R30niEO9-FOyuHYD-174">
          <mxGeometry y="57.57142857142857" width="505" height="29" as="geometry" />
        </mxCell>
        <mxCell id="iqE1R30niEO9-FOyuHYD-177" value="-WinningPattern winningPattern" style="text;strokeColor=none;fillColor=none;align=left;verticalAlign=top;spacingLeft=4;spacingRight=4;overflow=hidden;rotatable=0;points=[[0,0.5],[1,0.5]];portConstraint=eastwest;" vertex="1" parent="iqE1R30niEO9-FOyuHYD-174">
          <mxGeometry y="86.57142857142857" width="505" height="29" as="geometry" />
        </mxCell>
        <mxCell id="iqE1R30niEO9-FOyuHYD-178" value="-int totalCardsPlayed" style="text;strokeColor=none;fillColor=none;align=left;verticalAlign=top;spacingLeft=4;spacingRight=4;overflow=hidden;rotatable=0;points=[[0,0.5],[1,0.5]];portConstraint=eastwest;" vertex="1" parent="iqE1R30niEO9-FOyuHYD-174">
          <mxGeometry y="115.57142857142857" width="505" height="29" as="geometry" />
        </mxCell>
        <mxCell id="iqE1R30niEO9-FOyuHYD-179" value="-long gameDurationMs" style="text;strokeColor=none;fillColor=none;align=left;verticalAlign=top;spacingLeft=4;spacingRight=4;overflow=hidden;rotatable=0;points=[[0,0.5],[1,0.5]];portConstraint=eastwest;" vertex="1" parent="iqE1R30niEO9-FOyuHYD-174">
          <mxGeometry y="144.57142857142856" width="505" height="29" as="geometry" />
        </mxCell>
        <mxCell id="iqE1R30niEO9-FOyuHYD-180" value="-LocalDateTime gameDate" style="text;strokeColor=none;fillColor=none;align=left;verticalAlign=top;spacingLeft=4;spacingRight=4;overflow=hidden;rotatable=0;points=[[0,0.5],[1,0.5]];portConstraint=eastwest;" vertex="1" parent="iqE1R30niEO9-FOyuHYD-174">
          <mxGeometry y="173.57142857142856" width="505" height="29" as="geometry" />
        </mxCell>
        <mxCell id="iqE1R30niEO9-FOyuHYD-181" style="line;strokeWidth=1;fillColor=none;align=left;verticalAlign=middle;spacingTop=-1;spacingLeft=3;spacingRight=3;rotatable=0;labelPosition=right;points=[];portConstraint=eastwest;strokeColor=inherit;" vertex="1" parent="iqE1R30niEO9-FOyuHYD-174">
          <mxGeometry y="202.57142857142856" width="505" height="8" as="geometry" />
        </mxCell>
        <mxCell id="iqE1R30niEO9-FOyuHYD-182" value="+GameResult(Player, List&lt;Player&gt;, WinningPattern, int, long)" style="text;strokeColor=none;fillColor=none;align=left;verticalAlign=top;spacingLeft=4;spacingRight=4;overflow=hidden;rotatable=0;points=[[0,0.5],[1,0.5]];portConstraint=eastwest;" vertex="1" parent="iqE1R30niEO9-FOyuHYD-174">
          <mxGeometry y="210.57142857142856" width="505" height="29" as="geometry" />
        </mxCell>
        <mxCell id="iqE1R30niEO9-FOyuHYD-183" value="+Player getWinner()" style="text;strokeColor=none;fillColor=none;align=left;verticalAlign=top;spacingLeft=4;spacingRight=4;overflow=hidden;rotatable=0;points=[[0,0.5],[1,0.5]];portConstraint=eastwest;" vertex="1" parent="iqE1R30niEO9-FOyuHYD-174">
          <mxGeometry y="239.57142857142856" width="505" height="29" as="geometry" />
        </mxCell>
        <mxCell id="iqE1R30niEO9-FOyuHYD-184" value="+List&lt;Player&gt; getParticipants()" style="text;strokeColor=none;fillColor=none;align=left;verticalAlign=top;spacingLeft=4;spacingRight=4;overflow=hidden;rotatable=0;points=[[0,0.5],[1,0.5]];portConstraint=eastwest;" vertex="1" parent="iqE1R30niEO9-FOyuHYD-174">
          <mxGeometry y="268.57142857142856" width="505" height="29" as="geometry" />
        </mxCell>
        <mxCell id="iqE1R30niEO9-FOyuHYD-185" value="+WinningPattern getWinningPattern()" style="text;strokeColor=none;fillColor=none;align=left;verticalAlign=top;spacingLeft=4;spacingRight=4;overflow=hidden;rotatable=0;points=[[0,0.5],[1,0.5]];portConstraint=eastwest;" vertex="1" parent="iqE1R30niEO9-FOyuHYD-174">
          <mxGeometry y="297.57142857142856" width="505" height="29" as="geometry" />
        </mxCell>
        <mxCell id="iqE1R30niEO9-FOyuHYD-186" value="+int getTotalCardsPlayed()" style="text;strokeColor=none;fillColor=none;align=left;verticalAlign=top;spacingLeft=4;spacingRight=4;overflow=hidden;rotatable=0;points=[[0,0.5],[1,0.5]];portConstraint=eastwest;" vertex="1" parent="iqE1R30niEO9-FOyuHYD-174">
          <mxGeometry y="326.57142857142856" width="505" height="29" as="geometry" />
        </mxCell>
        <mxCell id="iqE1R30niEO9-FOyuHYD-187" value="+long getGameDuration()" style="text;strokeColor=none;fillColor=none;align=left;verticalAlign=top;spacingLeft=4;spacingRight=4;overflow=hidden;rotatable=0;points=[[0,0.5],[1,0.5]];portConstraint=eastwest;" vertex="1" parent="iqE1R30niEO9-FOyuHYD-174">
          <mxGeometry y="355.57142857142856" width="505" height="29" as="geometry" />
        </mxCell>
        <mxCell id="iqE1R30niEO9-FOyuHYD-188" value="+LocalDateTime getGameDate()" style="text;strokeColor=none;fillColor=none;align=left;verticalAlign=top;spacingLeft=4;spacingRight=4;overflow=hidden;rotatable=0;points=[[0,0.5],[1,0.5]];portConstraint=eastwest;" vertex="1" parent="iqE1R30niEO9-FOyuHYD-174">
          <mxGeometry y="384.57142857142856" width="505" height="29" as="geometry" />
        </mxCell>
        <mxCell id="iqE1R30niEO9-FOyuHYD-189" value="GameStatistics" style="swimlane;fontStyle=1;align=center;verticalAlign=top;childLayout=stackLayout;horizontal=1;startSize=29.333333333333332;horizontalStack=0;resizeParent=1;resizeParentMax=0;resizeLast=0;collapsible=0;marginBottom=0;" vertex="1" parent="1">
          <mxGeometry x="3525" y="248" width="443" height="356.3333333333333" as="geometry" />
        </mxCell>
        <mxCell id="iqE1R30niEO9-FOyuHYD-190" value="-int totalGames" style="text;strokeColor=none;fillColor=none;align=left;verticalAlign=top;spacingLeft=4;spacingRight=4;overflow=hidden;rotatable=0;points=[[0,0.5],[1,0.5]];portConstraint=eastwest;" vertex="1" parent="iqE1R30niEO9-FOyuHYD-189">
          <mxGeometry y="29.333333333333332" width="443" height="29" as="geometry" />
        </mxCell>
        <mxCell id="iqE1R30niEO9-FOyuHYD-191" value="-Map&lt;Player, Integer&gt; playerWins" style="text;strokeColor=none;fillColor=none;align=left;verticalAlign=top;spacingLeft=4;spacingRight=4;overflow=hidden;rotatable=0;points=[[0,0.5],[1,0.5]];portConstraint=eastwest;" vertex="1" parent="iqE1R30niEO9-FOyuHYD-189">
          <mxGeometry y="58.33333333333333" width="443" height="29" as="geometry" />
        </mxCell>
        <mxCell id="iqE1R30niEO9-FOyuHYD-192" value="-Map&lt;LoteriaCard, Integer&gt; cardFrequency" style="text;strokeColor=none;fillColor=none;align=left;verticalAlign=top;spacingLeft=4;spacingRight=4;overflow=hidden;rotatable=0;points=[[0,0.5],[1,0.5]];portConstraint=eastwest;" vertex="1" parent="iqE1R30niEO9-FOyuHYD-189">
          <mxGeometry y="87.33333333333333" width="443" height="29" as="geometry" />
        </mxCell>
        <mxCell id="iqE1R30niEO9-FOyuHYD-193" value="-List&lt;GameResult&gt; gameHistory" style="text;strokeColor=none;fillColor=none;align=left;verticalAlign=top;spacingLeft=4;spacingRight=4;overflow=hidden;rotatable=0;points=[[0,0.5],[1,0.5]];portConstraint=eastwest;" vertex="1" parent="iqE1R30niEO9-FOyuHYD-189">
          <mxGeometry y="116.33333333333333" width="443" height="29" as="geometry" />
        </mxCell>
        <mxCell id="iqE1R30niEO9-FOyuHYD-194" style="line;strokeWidth=1;fillColor=none;align=left;verticalAlign=middle;spacingTop=-1;spacingLeft=3;spacingRight=3;rotatable=0;labelPosition=right;points=[];portConstraint=eastwest;strokeColor=inherit;" vertex="1" parent="iqE1R30niEO9-FOyuHYD-189">
          <mxGeometry y="145.33333333333331" width="443" height="8" as="geometry" />
        </mxCell>
        <mxCell id="iqE1R30niEO9-FOyuHYD-195" value="+GameStatistics()" style="text;strokeColor=none;fillColor=none;align=left;verticalAlign=top;spacingLeft=4;spacingRight=4;overflow=hidden;rotatable=0;points=[[0,0.5],[1,0.5]];portConstraint=eastwest;" vertex="1" parent="iqE1R30niEO9-FOyuHYD-189">
          <mxGeometry y="153.33333333333331" width="443" height="29" as="geometry" />
        </mxCell>
        <mxCell id="iqE1R30niEO9-FOyuHYD-196" value="+void recordGame(GameResult, List&lt;LoteriaCard&gt;)" style="text;strokeColor=none;fillColor=none;align=left;verticalAlign=top;spacingLeft=4;spacingRight=4;overflow=hidden;rotatable=0;points=[[0,0.5],[1,0.5]];portConstraint=eastwest;" vertex="1" parent="iqE1R30niEO9-FOyuHYD-189">
          <mxGeometry y="182.33333333333331" width="443" height="29" as="geometry" />
        </mxCell>
        <mxCell id="iqE1R30niEO9-FOyuHYD-197" value="+int getPlayerWins(Player)" style="text;strokeColor=none;fillColor=none;align=left;verticalAlign=top;spacingLeft=4;spacingRight=4;overflow=hidden;rotatable=0;points=[[0,0.5],[1,0.5]];portConstraint=eastwest;" vertex="1" parent="iqE1R30niEO9-FOyuHYD-189">
          <mxGeometry y="211.33333333333331" width="443" height="29" as="geometry" />
        </mxCell>
        <mxCell id="iqE1R30niEO9-FOyuHYD-198" value="+int getTotalGames()" style="text;strokeColor=none;fillColor=none;align=left;verticalAlign=top;spacingLeft=4;spacingRight=4;overflow=hidden;rotatable=0;points=[[0,0.5],[1,0.5]];portConstraint=eastwest;" vertex="1" parent="iqE1R30niEO9-FOyuHYD-189">
          <mxGeometry y="240.33333333333331" width="443" height="29" as="geometry" />
        </mxCell>
        <mxCell id="iqE1R30niEO9-FOyuHYD-199" value="+LoteriaCard getMostCalledCard()" style="text;strokeColor=none;fillColor=none;align=left;verticalAlign=top;spacingLeft=4;spacingRight=4;overflow=hidden;rotatable=0;points=[[0,0.5],[1,0.5]];portConstraint=eastwest;" vertex="1" parent="iqE1R30niEO9-FOyuHYD-189">
          <mxGeometry y="269.3333333333333" width="443" height="29" as="geometry" />
        </mxCell>
        <mxCell id="iqE1R30niEO9-FOyuHYD-200" value="+double getWinRate(Player)" style="text;strokeColor=none;fillColor=none;align=left;verticalAlign=top;spacingLeft=4;spacingRight=4;overflow=hidden;rotatable=0;points=[[0,0.5],[1,0.5]];portConstraint=eastwest;" vertex="1" parent="iqE1R30niEO9-FOyuHYD-189">
          <mxGeometry y="298.3333333333333" width="443" height="29" as="geometry" />
        </mxCell>
        <mxCell id="iqE1R30niEO9-FOyuHYD-201" value="+String exportStatistics()" style="text;strokeColor=none;fillColor=none;align=left;verticalAlign=top;spacingLeft=4;spacingRight=4;overflow=hidden;rotatable=0;points=[[0,0.5],[1,0.5]];portConstraint=eastwest;" vertex="1" parent="iqE1R30niEO9-FOyuHYD-189">
          <mxGeometry y="327.3333333333333" width="443" height="29" as="geometry" />
        </mxCell>
        <mxCell id="iqE1R30niEO9-FOyuHYD-202" value="LoteriaException" style="swimlane;fontStyle=1;align=center;verticalAlign=top;childLayout=stackLayout;horizontal=1;startSize=40.57142857142857;horizontalStack=0;resizeParent=1;resizeParentMax=0;resizeLast=0;collapsible=0;marginBottom=0;" vertex="1" parent="1">
          <mxGeometry x="1159" y="1746" width="357" height="130.57142857142856" as="geometry" />
        </mxCell>
        <mxCell id="iqE1R30niEO9-FOyuHYD-203" style="line;strokeWidth=1;fillColor=none;align=left;verticalAlign=middle;spacingTop=-1;spacingLeft=3;spacingRight=3;rotatable=0;labelPosition=right;points=[];portConstraint=eastwest;strokeColor=inherit;" vertex="1" parent="iqE1R30niEO9-FOyuHYD-202">
          <mxGeometry y="40.57142857142857" width="357" height="8" as="geometry" />
        </mxCell>
        <mxCell id="iqE1R30niEO9-FOyuHYD-204" value="+LoteriaException(String)" style="text;strokeColor=none;fillColor=none;align=left;verticalAlign=top;spacingLeft=4;spacingRight=4;overflow=hidden;rotatable=0;points=[[0,0.5],[1,0.5]];portConstraint=eastwest;" vertex="1" parent="iqE1R30niEO9-FOyuHYD-202">
          <mxGeometry y="48.57142857142857" width="357" height="41" as="geometry" />
        </mxCell>
        <mxCell id="iqE1R30niEO9-FOyuHYD-205" value="+LoteriaException(String, Throwable)" style="text;strokeColor=none;fillColor=none;align=left;verticalAlign=top;spacingLeft=4;spacingRight=4;overflow=hidden;rotatable=0;points=[[0,0.5],[1,0.5]];portConstraint=eastwest;" vertex="1" parent="iqE1R30niEO9-FOyuHYD-202">
          <mxGeometry y="89.57142857142857" width="357" height="41" as="geometry" />
        </mxCell>
        <mxCell id="iqE1R30niEO9-FOyuHYD-206" value="LoteriaCLI" style="swimlane;fontStyle=1;align=center;verticalAlign=top;childLayout=stackLayout;horizontal=1;startSize=27.555555555555557;horizontalStack=0;resizeParent=1;resizeParentMax=0;resizeLast=0;collapsible=0;marginBottom=0;" vertex="1" parent="1">
          <mxGeometry x="2437" y="176" width="414" height="511.55555555555554" as="geometry" />
        </mxCell>
        <mxCell id="iqE1R30niEO9-FOyuHYD-207" value="-int MAX_PLAYERS" style="text;strokeColor=none;fillColor=none;align=left;verticalAlign=top;spacingLeft=4;spacingRight=4;overflow=hidden;rotatable=0;points=[[0,0.5],[1,0.5]];portConstraint=eastwest;" vertex="1" parent="iqE1R30niEO9-FOyuHYD-206">
          <mxGeometry y="27.555555555555557" width="414" height="28" as="geometry" />
        </mxCell>
        <mxCell id="iqE1R30niEO9-FOyuHYD-208" value="-int BOARD_SIZE" style="text;strokeColor=none;fillColor=none;align=left;verticalAlign=top;spacingLeft=4;spacingRight=4;overflow=hidden;rotatable=0;points=[[0,0.5],[1,0.5]];portConstraint=eastwest;" vertex="1" parent="iqE1R30niEO9-FOyuHYD-206">
          <mxGeometry y="55.55555555555556" width="414" height="28" as="geometry" />
        </mxCell>
        <mxCell id="iqE1R30niEO9-FOyuHYD-209" value="-LoteriaGame game" style="text;strokeColor=none;fillColor=none;align=left;verticalAlign=top;spacingLeft=4;spacingRight=4;overflow=hidden;rotatable=0;points=[[0,0.5],[1,0.5]];portConstraint=eastwest;" vertex="1" parent="iqE1R30niEO9-FOyuHYD-206">
          <mxGeometry y="83.55555555555556" width="414" height="28" as="geometry" />
        </mxCell>
        <mxCell id="iqE1R30niEO9-FOyuHYD-210" value="-Scanner scanner" style="text;strokeColor=none;fillColor=none;align=left;verticalAlign=top;spacingLeft=4;spacingRight=4;overflow=hidden;rotatable=0;points=[[0,0.5],[1,0.5]];portConstraint=eastwest;" vertex="1" parent="iqE1R30niEO9-FOyuHYD-206">
          <mxGeometry y="111.55555555555556" width="414" height="28" as="geometry" />
        </mxCell>
        <mxCell id="iqE1R30niEO9-FOyuHYD-211" value="-Map&lt;String, WinningPattern&gt; standardPatterns" style="text;strokeColor=none;fillColor=none;align=left;verticalAlign=top;spacingLeft=4;spacingRight=4;overflow=hidden;rotatable=0;points=[[0,0.5],[1,0.5]];portConstraint=eastwest;" vertex="1" parent="iqE1R30niEO9-FOyuHYD-206">
          <mxGeometry y="139.55555555555554" width="414" height="28" as="geometry" />
        </mxCell>
        <mxCell id="iqE1R30niEO9-FOyuHYD-212" style="line;strokeWidth=1;fillColor=none;align=left;verticalAlign=middle;spacingTop=-1;spacingLeft=3;spacingRight=3;rotatable=0;labelPosition=right;points=[];portConstraint=eastwest;strokeColor=inherit;" vertex="1" parent="iqE1R30niEO9-FOyuHYD-206">
          <mxGeometry y="167.55555555555554" width="414" height="8" as="geometry" />
        </mxCell>
        <mxCell id="iqE1R30niEO9-FOyuHYD-213" value="+LoteriaCLI()" style="text;strokeColor=none;fillColor=none;align=left;verticalAlign=top;spacingLeft=4;spacingRight=4;overflow=hidden;rotatable=0;points=[[0,0.5],[1,0.5]];portConstraint=eastwest;" vertex="1" parent="iqE1R30niEO9-FOyuHYD-206">
          <mxGeometry y="175.55555555555554" width="414" height="28" as="geometry" />
        </mxCell>
        <mxCell id="iqE1R30niEO9-FOyuHYD-214" value="+void main(String[])" style="text;strokeColor=none;fillColor=none;align=left;verticalAlign=top;spacingLeft=4;spacingRight=4;overflow=hidden;rotatable=0;points=[[0,0.5],[1,0.5]];portConstraint=eastwest;" vertex="1" parent="iqE1R30niEO9-FOyuHYD-206">
          <mxGeometry y="203.55555555555554" width="414" height="28" as="geometry" />
        </mxCell>
        <mxCell id="iqE1R30niEO9-FOyuHYD-215" value="+void run()" style="text;strokeColor=none;fillColor=none;align=left;verticalAlign=top;spacingLeft=4;spacingRight=4;overflow=hidden;rotatable=0;points=[[0,0.5],[1,0.5]];portConstraint=eastwest;" vertex="1" parent="iqE1R30niEO9-FOyuHYD-206">
          <mxGeometry y="231.55555555555554" width="414" height="28" as="geometry" />
        </mxCell>
        <mxCell id="iqE1R30niEO9-FOyuHYD-216" value="-void handleJoin(String[])" style="text;strokeColor=none;fillColor=none;align=left;verticalAlign=top;spacingLeft=4;spacingRight=4;overflow=hidden;rotatable=0;points=[[0,0.5],[1,0.5]];portConstraint=eastwest;" vertex="1" parent="iqE1R30niEO9-FOyuHYD-206">
          <mxGeometry y="259.55555555555554" width="414" height="28" as="geometry" />
        </mxCell>
        <mxCell id="iqE1R30niEO9-FOyuHYD-217" value="-void handleStart()" style="text;strokeColor=none;fillColor=none;align=left;verticalAlign=top;spacingLeft=4;spacingRight=4;overflow=hidden;rotatable=0;points=[[0,0.5],[1,0.5]];portConstraint=eastwest;" vertex="1" parent="iqE1R30niEO9-FOyuHYD-206">
          <mxGeometry y="287.55555555555554" width="414" height="28" as="geometry" />
        </mxCell>
        <mxCell id="iqE1R30niEO9-FOyuHYD-218" value="-void handleCall()" style="text;strokeColor=none;fillColor=none;align=left;verticalAlign=top;spacingLeft=4;spacingRight=4;overflow=hidden;rotatable=0;points=[[0,0.5],[1,0.5]];portConstraint=eastwest;" vertex="1" parent="iqE1R30niEO9-FOyuHYD-206">
          <mxGeometry y="315.55555555555554" width="414" height="28" as="geometry" />
        </mxCell>
        <mxCell id="iqE1R30niEO9-FOyuHYD-219" value="-void handleBoard(String[])" style="text;strokeColor=none;fillColor=none;align=left;verticalAlign=top;spacingLeft=4;spacingRight=4;overflow=hidden;rotatable=0;points=[[0,0.5],[1,0.5]];portConstraint=eastwest;" vertex="1" parent="iqE1R30niEO9-FOyuHYD-206">
          <mxGeometry y="343.55555555555554" width="414" height="28" as="geometry" />
        </mxCell>
        <mxCell id="iqE1R30niEO9-FOyuHYD-220" value="-void handleWin(String[])" style="text;strokeColor=none;fillColor=none;align=left;verticalAlign=top;spacingLeft=4;spacingRight=4;overflow=hidden;rotatable=0;points=[[0,0.5],[1,0.5]];portConstraint=eastwest;" vertex="1" parent="iqE1R30niEO9-FOyuHYD-206">
          <mxGeometry y="371.55555555555554" width="414" height="28" as="geometry" />
        </mxCell>
        <mxCell id="iqE1R30niEO9-FOyuHYD-221" value="-void handleNew()" style="text;strokeColor=none;fillColor=none;align=left;verticalAlign=top;spacingLeft=4;spacingRight=4;overflow=hidden;rotatable=0;points=[[0,0.5],[1,0.5]];portConstraint=eastwest;" vertex="1" parent="iqE1R30niEO9-FOyuHYD-206">
          <mxGeometry y="399.55555555555554" width="414" height="28" as="geometry" />
        </mxCell>
        <mxCell id="iqE1R30niEO9-FOyuHYD-222" value="-void displayHelp()" style="text;strokeColor=none;fillColor=none;align=left;verticalAlign=top;spacingLeft=4;spacingRight=4;overflow=hidden;rotatable=0;points=[[0,0.5],[1,0.5]];portConstraint=eastwest;" vertex="1" parent="iqE1R30niEO9-FOyuHYD-206">
          <mxGeometry y="427.55555555555554" width="414" height="28" as="geometry" />
        </mxCell>
        <mxCell id="iqE1R30niEO9-FOyuHYD-223" value="-void displayBoard(PlayerBoard)" style="text;strokeColor=none;fillColor=none;align=left;verticalAlign=top;spacingLeft=4;spacingRight=4;overflow=hidden;rotatable=0;points=[[0,0.5],[1,0.5]];portConstraint=eastwest;" vertex="1" parent="iqE1R30niEO9-FOyuHYD-206">
          <mxGeometry y="455.55555555555554" width="414" height="28" as="geometry" />
        </mxCell>
        <mxCell id="iqE1R30niEO9-FOyuHYD-224" value="-Map&lt;String, WinningPattern&gt; initializePatterns()" style="text;strokeColor=none;fillColor=none;align=left;verticalAlign=top;spacingLeft=4;spacingRight=4;overflow=hidden;rotatable=0;points=[[0,0.5],[1,0.5]];portConstraint=eastwest;" vertex="1" parent="iqE1R30niEO9-FOyuHYD-206">
          <mxGeometry y="483.55555555555554" width="414" height="28" as="geometry" />
        </mxCell>
        <mxCell id="iqE1R30niEO9-FOyuHYD-225" value="LoteriaGUI" style="swimlane;fontStyle=1;align=center;verticalAlign=top;childLayout=stackLayout;horizontal=1;startSize=26.06451612903226;horizontalStack=0;resizeParent=1;resizeParentMax=0;resizeLast=0;collapsible=0;marginBottom=0;" vertex="1" parent="1">
          <mxGeometry x="275" y="20" width="392" height="814.0645161290322" as="geometry" />
        </mxCell>
        <mxCell id="iqE1R30niEO9-FOyuHYD-226" value="-int MAX_PLAYERS" style="text;strokeColor=none;fillColor=none;align=left;verticalAlign=top;spacingLeft=4;spacingRight=4;overflow=hidden;rotatable=0;points=[[0,0.5],[1,0.5]];portConstraint=eastwest;" vertex="1" parent="iqE1R30niEO9-FOyuHYD-225">
          <mxGeometry y="26.06451612903226" width="392" height="26" as="geometry" />
        </mxCell>
        <mxCell id="iqE1R30niEO9-FOyuHYD-227" value="-int BOARD_SIZE" style="text;strokeColor=none;fillColor=none;align=left;verticalAlign=top;spacingLeft=4;spacingRight=4;overflow=hidden;rotatable=0;points=[[0,0.5],[1,0.5]];portConstraint=eastwest;" vertex="1" parent="iqE1R30niEO9-FOyuHYD-225">
          <mxGeometry y="52.064516129032256" width="392" height="26" as="geometry" />
        </mxCell>
        <mxCell id="iqE1R30niEO9-FOyuHYD-228" value="-LoteriaGame game" style="text;strokeColor=none;fillColor=none;align=left;verticalAlign=top;spacingLeft=4;spacingRight=4;overflow=hidden;rotatable=0;points=[[0,0.5],[1,0.5]];portConstraint=eastwest;" vertex="1" parent="iqE1R30niEO9-FOyuHYD-225">
          <mxGeometry y="78.06451612903226" width="392" height="26" as="geometry" />
        </mxCell>
        <mxCell id="iqE1R30niEO9-FOyuHYD-229" value="-Player currentPlayer" style="text;strokeColor=none;fillColor=none;align=left;verticalAlign=top;spacingLeft=4;spacingRight=4;overflow=hidden;rotatable=0;points=[[0,0.5],[1,0.5]];portConstraint=eastwest;" vertex="1" parent="iqE1R30niEO9-FOyuHYD-225">
          <mxGeometry y="104.06451612903226" width="392" height="26" as="geometry" />
        </mxCell>
        <mxCell id="iqE1R30niEO9-FOyuHYD-230" value="-int currentBoardIndex" style="text;strokeColor=none;fillColor=none;align=left;verticalAlign=top;spacingLeft=4;spacingRight=4;overflow=hidden;rotatable=0;points=[[0,0.5],[1,0.5]];portConstraint=eastwest;" vertex="1" parent="iqE1R30niEO9-FOyuHYD-225">
          <mxGeometry y="130.06451612903226" width="392" height="26" as="geometry" />
        </mxCell>
        <mxCell id="iqE1R30niEO9-FOyuHYD-231" value="-VBox setupPanel" style="text;strokeColor=none;fillColor=none;align=left;verticalAlign=top;spacingLeft=4;spacingRight=4;overflow=hidden;rotatable=0;points=[[0,0.5],[1,0.5]];portConstraint=eastwest;" vertex="1" parent="iqE1R30niEO9-FOyuHYD-225">
          <mxGeometry y="156.06451612903226" width="392" height="26" as="geometry" />
        </mxCell>
        <mxCell id="iqE1R30niEO9-FOyuHYD-232" value="-VBox gamePanel" style="text;strokeColor=none;fillColor=none;align=left;verticalAlign=top;spacingLeft=4;spacingRight=4;overflow=hidden;rotatable=0;points=[[0,0.5],[1,0.5]];portConstraint=eastwest;" vertex="1" parent="iqE1R30niEO9-FOyuHYD-225">
          <mxGeometry y="182.06451612903226" width="392" height="26" as="geometry" />
        </mxCell>
        <mxCell id="iqE1R30niEO9-FOyuHYD-233" value="-ListView&lt;String&gt; playerListView" style="text;strokeColor=none;fillColor=none;align=left;verticalAlign=top;spacingLeft=4;spacingRight=4;overflow=hidden;rotatable=0;points=[[0,0.5],[1,0.5]];portConstraint=eastwest;" vertex="1" parent="iqE1R30niEO9-FOyuHYD-225">
          <mxGeometry y="208.06451612903226" width="392" height="26" as="geometry" />
        </mxCell>
        <mxCell id="iqE1R30niEO9-FOyuHYD-234" value="-ComboBox&lt;Player&gt; playerSelectorComboBox" style="text;strokeColor=none;fillColor=none;align=left;verticalAlign=top;spacingLeft=4;spacingRight=4;overflow=hidden;rotatable=0;points=[[0,0.5],[1,0.5]];portConstraint=eastwest;" vertex="1" parent="iqE1R30niEO9-FOyuHYD-225">
          <mxGeometry y="234.06451612903226" width="392" height="26" as="geometry" />
        </mxCell>
        <mxCell id="iqE1R30niEO9-FOyuHYD-235" value="-ComboBox&lt;Integer&gt; boardSelectorComboBox" style="text;strokeColor=none;fillColor=none;align=left;verticalAlign=top;spacingLeft=4;spacingRight=4;overflow=hidden;rotatable=0;points=[[0,0.5],[1,0.5]];portConstraint=eastwest;" vertex="1" parent="iqE1R30niEO9-FOyuHYD-225">
          <mxGeometry y="260.06451612903226" width="392" height="26" as="geometry" />
        </mxCell>
        <mxCell id="iqE1R30niEO9-FOyuHYD-236" value="-Button startGameButton" style="text;strokeColor=none;fillColor=none;align=left;verticalAlign=top;spacingLeft=4;spacingRight=4;overflow=hidden;rotatable=0;points=[[0,0.5],[1,0.5]];portConstraint=eastwest;" vertex="1" parent="iqE1R30niEO9-FOyuHYD-225">
          <mxGeometry y="286.06451612903226" width="392" height="26" as="geometry" />
        </mxCell>
        <mxCell id="iqE1R30niEO9-FOyuHYD-237" value="-Button callCardButton" style="text;strokeColor=none;fillColor=none;align=left;verticalAlign=top;spacingLeft=4;spacingRight=4;overflow=hidden;rotatable=0;points=[[0,0.5],[1,0.5]];portConstraint=eastwest;" vertex="1" parent="iqE1R30niEO9-FOyuHYD-225">
          <mxGeometry y="312.06451612903226" width="392" height="26" as="geometry" />
        </mxCell>
        <mxCell id="iqE1R30niEO9-FOyuHYD-238" value="-Button loteriaButton" style="text;strokeColor=none;fillColor=none;align=left;verticalAlign=top;spacingLeft=4;spacingRight=4;overflow=hidden;rotatable=0;points=[[0,0.5],[1,0.5]];portConstraint=eastwest;" vertex="1" parent="iqE1R30niEO9-FOyuHYD-225">
          <mxGeometry y="338.06451612903226" width="392" height="26" as="geometry" />
        </mxCell>
        <mxCell id="iqE1R30niEO9-FOyuHYD-239" value="-ImageView callerCardImageView" style="text;strokeColor=none;fillColor=none;align=left;verticalAlign=top;spacingLeft=4;spacingRight=4;overflow=hidden;rotatable=0;points=[[0,0.5],[1,0.5]];portConstraint=eastwest;" vertex="1" parent="iqE1R30niEO9-FOyuHYD-225">
          <mxGeometry y="364.06451612903226" width="392" height="26" as="geometry" />
        </mxCell>
        <mxCell id="iqE1R30niEO9-FOyuHYD-240" value="-Label callerCardNameLabel" style="text;strokeColor=none;fillColor=none;align=left;verticalAlign=top;spacingLeft=4;spacingRight=4;overflow=hidden;rotatable=0;points=[[0,0.5],[1,0.5]];portConstraint=eastwest;" vertex="1" parent="iqE1R30niEO9-FOyuHYD-225">
          <mxGeometry y="390.06451612903226" width="392" height="26" as="geometry" />
        </mxCell>
        <mxCell id="iqE1R30niEO9-FOyuHYD-241" value="-GridPane playerBoardGrid" style="text;strokeColor=none;fillColor=none;align=left;verticalAlign=top;spacingLeft=4;spacingRight=4;overflow=hidden;rotatable=0;points=[[0,0.5],[1,0.5]];portConstraint=eastwest;" vertex="1" parent="iqE1R30niEO9-FOyuHYD-225">
          <mxGeometry y="416.06451612903226" width="392" height="26" as="geometry" />
        </mxCell>
        <mxCell id="iqE1R30niEO9-FOyuHYD-242" value="-Label statusLabel" style="text;strokeColor=none;fillColor=none;align=left;verticalAlign=top;spacingLeft=4;spacingRight=4;overflow=hidden;rotatable=0;points=[[0,0.5],[1,0.5]];portConstraint=eastwest;" vertex="1" parent="iqE1R30niEO9-FOyuHYD-225">
          <mxGeometry y="442.06451612903226" width="392" height="26" as="geometry" />
        </mxCell>
        <mxCell id="iqE1R30niEO9-FOyuHYD-243" style="line;strokeWidth=1;fillColor=none;align=left;verticalAlign=middle;spacingTop=-1;spacingLeft=3;spacingRight=3;rotatable=0;labelPosition=right;points=[];portConstraint=eastwest;strokeColor=inherit;" vertex="1" parent="iqE1R30niEO9-FOyuHYD-225">
          <mxGeometry y="468.06451612903226" width="392" height="8" as="geometry" />
        </mxCell>
        <mxCell id="iqE1R30niEO9-FOyuHYD-244" value="+void start(Stage)" style="text;strokeColor=none;fillColor=none;align=left;verticalAlign=top;spacingLeft=4;spacingRight=4;overflow=hidden;rotatable=0;points=[[0,0.5],[1,0.5]];portConstraint=eastwest;" vertex="1" parent="iqE1R30niEO9-FOyuHYD-225">
          <mxGeometry y="476.06451612903226" width="392" height="26" as="geometry" />
        </mxCell>
        <mxCell id="iqE1R30niEO9-FOyuHYD-245" value="-void handleAddPlayer(TextField)" style="text;strokeColor=none;fillColor=none;align=left;verticalAlign=top;spacingLeft=4;spacingRight=4;overflow=hidden;rotatable=0;points=[[0,0.5],[1,0.5]];portConstraint=eastwest;" vertex="1" parent="iqE1R30niEO9-FOyuHYD-225">
          <mxGeometry y="502.06451612903226" width="392" height="26" as="geometry" />
        </mxCell>
        <mxCell id="iqE1R30niEO9-FOyuHYD-246" value="-void handleStartGame()" style="text;strokeColor=none;fillColor=none;align=left;verticalAlign=top;spacingLeft=4;spacingRight=4;overflow=hidden;rotatable=0;points=[[0,0.5],[1,0.5]];portConstraint=eastwest;" vertex="1" parent="iqE1R30niEO9-FOyuHYD-225">
          <mxGeometry y="528.0645161290322" width="392" height="26" as="geometry" />
        </mxCell>
        <mxCell id="iqE1R30niEO9-FOyuHYD-247" value="-void handleCallCard()" style="text;strokeColor=none;fillColor=none;align=left;verticalAlign=top;spacingLeft=4;spacingRight=4;overflow=hidden;rotatable=0;points=[[0,0.5],[1,0.5]];portConstraint=eastwest;" vertex="1" parent="iqE1R30niEO9-FOyuHYD-225">
          <mxGeometry y="554.0645161290322" width="392" height="26" as="geometry" />
        </mxCell>
        <mxCell id="iqE1R30niEO9-FOyuHYD-248" value="-void handleLoteriaButton()" style="text;strokeColor=none;fillColor=none;align=left;verticalAlign=top;spacingLeft=4;spacingRight=4;overflow=hidden;rotatable=0;points=[[0,0.5],[1,0.5]];portConstraint=eastwest;" vertex="1" parent="iqE1R30niEO9-FOyuHYD-225">
          <mxGeometry y="580.0645161290322" width="392" height="26" as="geometry" />
        </mxCell>
        <mxCell id="iqE1R30niEO9-FOyuHYD-249" value="-void handleNewGame()" style="text;strokeColor=none;fillColor=none;align=left;verticalAlign=top;spacingLeft=4;spacingRight=4;overflow=hidden;rotatable=0;points=[[0,0.5],[1,0.5]];portConstraint=eastwest;" vertex="1" parent="iqE1R30niEO9-FOyuHYD-225">
          <mxGeometry y="606.0645161290322" width="392" height="26" as="geometry" />
        </mxCell>
        <mxCell id="iqE1R30niEO9-FOyuHYD-250" value="-void handlePlayerSelection()" style="text;strokeColor=none;fillColor=none;align=left;verticalAlign=top;spacingLeft=4;spacingRight=4;overflow=hidden;rotatable=0;points=[[0,0.5],[1,0.5]];portConstraint=eastwest;" vertex="1" parent="iqE1R30niEO9-FOyuHYD-225">
          <mxGeometry y="632.0645161290322" width="392" height="26" as="geometry" />
        </mxCell>
        <mxCell id="iqE1R30niEO9-FOyuHYD-251" value="-void handleBoardSelection()" style="text;strokeColor=none;fillColor=none;align=left;verticalAlign=top;spacingLeft=4;spacingRight=4;overflow=hidden;rotatable=0;points=[[0,0.5],[1,0.5]];portConstraint=eastwest;" vertex="1" parent="iqE1R30niEO9-FOyuHYD-225">
          <mxGeometry y="658.0645161290322" width="392" height="26" as="geometry" />
        </mxCell>
        <mxCell id="iqE1R30niEO9-FOyuHYD-252" value="-void drawPlayerBoard()" style="text;strokeColor=none;fillColor=none;align=left;verticalAlign=top;spacingLeft=4;spacingRight=4;overflow=hidden;rotatable=0;points=[[0,0.5],[1,0.5]];portConstraint=eastwest;" vertex="1" parent="iqE1R30niEO9-FOyuHYD-225">
          <mxGeometry y="684.0645161290322" width="392" height="26" as="geometry" />
        </mxCell>
        <mxCell id="iqE1R30niEO9-FOyuHYD-253" value="-void updateBoardHighlights()" style="text;strokeColor=none;fillColor=none;align=left;verticalAlign=top;spacingLeft=4;spacingRight=4;overflow=hidden;rotatable=0;points=[[0,0.5],[1,0.5]];portConstraint=eastwest;" vertex="1" parent="iqE1R30niEO9-FOyuHYD-225">
          <mxGeometry y="710.0645161290322" width="392" height="26" as="geometry" />
        </mxCell>
        <mxCell id="iqE1R30niEO9-FOyuHYD-254" value="-Image loadImage(String)" style="text;strokeColor=none;fillColor=none;align=left;verticalAlign=top;spacingLeft=4;spacingRight=4;overflow=hidden;rotatable=0;points=[[0,0.5],[1,0.5]];portConstraint=eastwest;" vertex="1" parent="iqE1R30niEO9-FOyuHYD-225">
          <mxGeometry y="736.0645161290322" width="392" height="26" as="geometry" />
        </mxCell>
        <mxCell id="iqE1R30niEO9-FOyuHYD-255" value="-Image createPlaceholderImage(String)" style="text;strokeColor=none;fillColor=none;align=left;verticalAlign=top;spacingLeft=4;spacingRight=4;overflow=hidden;rotatable=0;points=[[0,0.5],[1,0.5]];portConstraint=eastwest;" vertex="1" parent="iqE1R30niEO9-FOyuHYD-225">
          <mxGeometry y="762.0645161290322" width="392" height="26" as="geometry" />
        </mxCell>
        <mxCell id="iqE1R30niEO9-FOyuHYD-256" value="+void main(String[])" style="text;strokeColor=none;fillColor=none;align=left;verticalAlign=top;spacingLeft=4;spacingRight=4;overflow=hidden;rotatable=0;points=[[0,0.5],[1,0.5]];portConstraint=eastwest;" vertex="1" parent="iqE1R30niEO9-FOyuHYD-225">
          <mxGeometry y="788.0645161290322" width="392" height="26" as="geometry" />
        </mxCell>
        <mxCell id="iqE1R30niEO9-FOyuHYD-257" value="Exception" style="swimlane;fontStyle=1;align=center;verticalAlign=top;childLayout=stackLayout;horizontal=1;startSize=38;horizontalStack=0;resizeParent=1;resizeParentMax=0;resizeLast=0;collapsible=0;marginBottom=0;" vertex="1" parent="1">
          <mxGeometry x="1121" y="2284" width="98" height="57" as="geometry" />
        </mxCell>
        <mxCell id="iqE1R30niEO9-FOyuHYD-258" style="line;strokeWidth=1;fillColor=none;align=left;verticalAlign=middle;spacingTop=-1;spacingLeft=3;spacingRight=3;rotatable=0;labelPosition=right;points=[];portConstraint=eastwest;strokeColor=inherit;" vertex="1" parent="iqE1R30niEO9-FOyuHYD-257">
          <mxGeometry y="38" width="98" height="19" as="geometry" />
        </mxCell>
        <mxCell id="iqE1R30niEO9-FOyuHYD-259" value="uses" style="curved=1;startArrow=none;endArrow=open;endSize=12;exitX=0.5;exitY=1;entryX=0.99;entryY=0.34;rounded=0;" edge="1" parent="1" source="iqE1R30niEO9-FOyuHYD-1" target="iqE1R30niEO9-FOyuHYD-17">
          <mxGeometry relative="1" as="geometry">
            <Array as="points">
              <mxPoint x="2830" y="3515" />
            </Array>
          </mxGeometry>
        </mxCell>
        <mxCell id="iqE1R30niEO9-FOyuHYD-260" value="creates/manages" style="curved=1;startArrow=none;endArrow=open;endSize=12;exitX=0.75;exitY=1;entryX=0;entryY=0.23;rounded=0;" edge="1" parent="1" source="iqE1R30niEO9-FOyuHYD-27" target="iqE1R30niEO9-FOyuHYD-1">
          <mxGeometry relative="1" as="geometry">
            <Array as="points">
              <mxPoint x="2340" y="3010" />
            </Array>
          </mxGeometry>
        </mxCell>
        <mxCell id="iqE1R30niEO9-FOyuHYD-261" value="uses" style="curved=1;startArrow=none;endArrow=open;endSize=12;exitX=0.28;exitY=1;entryX=0;entryY=0.4;rounded=0;" edge="1" parent="1" source="iqE1R30niEO9-FOyuHYD-27" target="iqE1R30niEO9-FOyuHYD-17">
          <mxGeometry relative="1" as="geometry">
            <Array as="points">
              <mxPoint x="2076" y="3010" />
              <mxPoint x="2076" y="3515" />
            </Array>
          </mxGeometry>
        </mxCell>
        <mxCell id="iqE1R30niEO9-FOyuHYD-262" value="contains" style="curved=1;startArrow=none;endArrow=open;endSize=12;exitX=1;exitY=0.97;entryX=0;entryY=0.05;rounded=0;" edge="1" parent="1" source="iqE1R30niEO9-FOyuHYD-40" target="iqE1R30niEO9-FOyuHYD-1">
          <mxGeometry relative="1" as="geometry">
            <Array as="points">
              <mxPoint x="2531" y="2554" />
              <mxPoint x="2531" y="3010" />
            </Array>
          </mxGeometry>
        </mxCell>
        <mxCell id="iqE1R30niEO9-FOyuHYD-263" value="uses" style="curved=1;startArrow=none;endArrow=open;endSize=12;exitX=0.07;exitY=1;entryX=0.5;entryY=0;rounded=0;" edge="1" parent="1" source="iqE1R30niEO9-FOyuHYD-40" target="iqE1R30niEO9-FOyuHYD-27">
          <mxGeometry relative="1" as="geometry">
            <Array as="points">
              <mxPoint x="2200" y="2554" />
            </Array>
          </mxGeometry>
        </mxCell>
        <mxCell id="iqE1R30niEO9-FOyuHYD-264" value="uses" style="curved=1;startArrow=none;endArrow=open;endSize=12;exitX=0.66;exitY=1;entryX=1;entryY=0.38;rounded=0;" edge="1" parent="1" source="iqE1R30niEO9-FOyuHYD-54" target="iqE1R30niEO9-FOyuHYD-40">
          <mxGeometry relative="1" as="geometry">
            <Array as="points">
              <mxPoint x="3092" y="2097" />
            </Array>
          </mxGeometry>
        </mxCell>
        <mxCell id="iqE1R30niEO9-FOyuHYD-265" value="calls" style="curved=1;startArrow=none;endArrow=open;endSize=12;exitX=0.37;exitY=1;entryX=0.69;entryY=0;rounded=0;" edge="1" parent="1" source="iqE1R30niEO9-FOyuHYD-54" target="iqE1R30niEO9-FOyuHYD-1">
          <mxGeometry relative="1" as="geometry">
            <Array as="points">
              <mxPoint x="2932" y="2097" />
              <mxPoint x="2932" y="3010" />
            </Array>
          </mxGeometry>
        </mxCell>
        <mxCell id="iqE1R30niEO9-FOyuHYD-266" value="uses" style="curved=1;startArrow=none;endArrow=open;endSize=12;exitX=0.76;exitY=1;entryX=0.5;entryY=0;rounded=0;" edge="1" parent="1" source="iqE1R30niEO9-FOyuHYD-87" target="iqE1R30niEO9-FOyuHYD-75">
          <mxGeometry relative="1" as="geometry">
            <Array as="points">
              <mxPoint x="1675" y="2554" />
            </Array>
          </mxGeometry>
        </mxCell>
        <mxCell id="iqE1R30niEO9-FOyuHYD-267" value="contains" style="curved=1;startArrow=none;endArrow=open;endSize=12;exitX=0;exitY=0.94;entryX=1;entryY=0.07;rounded=0;" edge="1" parent="1" source="iqE1R30niEO9-FOyuHYD-87" target="iqE1R30niEO9-FOyuHYD-65">
          <mxGeometry relative="1" as="geometry">
            <Array as="points">
              <mxPoint x="1165" y="2554" />
            </Array>
          </mxGeometry>
        </mxCell>
        <mxCell id="iqE1R30niEO9-FOyuHYD-268" value="creates" style="curved=1;startArrow=none;endArrow=open;endSize=12;exitX=0.62;exitY=1;entryX=0;entryY=0.35;rounded=0;" edge="1" parent="1" source="iqE1R30niEO9-FOyuHYD-100" target="iqE1R30niEO9-FOyuHYD-87">
          <mxGeometry relative="1" as="geometry">
            <Array as="points">
              <mxPoint x="445" y="2097" />
            </Array>
          </mxGeometry>
        </mxCell>
        <mxCell id="iqE1R30niEO9-FOyuHYD-269" value="uses" style="curved=1;startArrow=none;endArrow=open;endSize=12;exitX=0.5;exitY=1;entryX=0;entryY=0.45;rounded=0;" edge="1" parent="1" source="iqE1R30niEO9-FOyuHYD-100" target="iqE1R30niEO9-FOyuHYD-75">
          <mxGeometry relative="1" as="geometry">
            <Array as="points">
              <mxPoint x="330" y="2554" />
            </Array>
          </mxGeometry>
        </mxCell>
        <mxCell id="iqE1R30niEO9-FOyuHYD-270" value="uses" style="curved=1;startArrow=none;endArrow=open;endSize=12;exitX=0.34;exitY=1;entryX=0;entryY=0.38;rounded=0;" edge="1" parent="1" source="iqE1R30niEO9-FOyuHYD-100" target="iqE1R30niEO9-FOyuHYD-65">
          <mxGeometry relative="1" as="geometry">
            <Array as="points">
              <mxPoint x="183" y="2097" />
              <mxPoint x="183" y="2554" />
            </Array>
          </mxGeometry>
        </mxCell>
        <mxCell id="iqE1R30niEO9-FOyuHYD-271" value="contains" style="curved=1;startArrow=none;endArrow=open;endSize=12;exitX=1;exitY=0.73;entryX=0;entryY=0.36;rounded=0;" edge="1" parent="1" source="iqE1R30niEO9-FOyuHYD-108" target="iqE1R30niEO9-FOyuHYD-1">
          <mxGeometry relative="1" as="geometry">
            <Array as="points">
              <mxPoint x="1900" y="1545" />
              <mxPoint x="1900" y="3010" />
            </Array>
          </mxGeometry>
        </mxCell>
        <mxCell id="iqE1R30niEO9-FOyuHYD-272" value="owned by" style="curved=1;startArrow=none;endArrow=open;endSize=12;exitX=0.97;exitY=1;entryX=0;entryY=0.36;rounded=0;" edge="1" parent="1" source="iqE1R30niEO9-FOyuHYD-108" target="iqE1R30niEO9-FOyuHYD-125">
          <mxGeometry relative="1" as="geometry">
            <Array as="points">
              <mxPoint x="1449" y="1545" />
            </Array>
          </mxGeometry>
        </mxCell>
        <mxCell id="iqE1R30niEO9-FOyuHYD-273" value="validates" style="curved=1;startArrow=none;endArrow=open;endSize=12;exitX=0.47;exitY=1;entryX=0;entryY=0.13;rounded=0;" edge="1" parent="1" source="iqE1R30niEO9-FOyuHYD-108" target="iqE1R30niEO9-FOyuHYD-87">
          <mxGeometry relative="1" as="geometry">
            <Array as="points">
              <mxPoint x="1089" y="1545" />
              <mxPoint x="1089" y="2097" />
            </Array>
          </mxGeometry>
        </mxCell>
        <mxCell id="iqE1R30niEO9-FOyuHYD-274" value="uses" style="curved=1;startArrow=none;endArrow=open;endSize=12;exitX=0.25;exitY=1;entryX=0.43;entryY=0;rounded=0;" edge="1" parent="1" source="iqE1R30niEO9-FOyuHYD-108" target="iqE1R30niEO9-FOyuHYD-65">
          <mxGeometry relative="1" as="geometry">
            <Array as="points">
              <mxPoint x="925" y="1545" />
              <mxPoint x="925" y="2554" />
            </Array>
          </mxGeometry>
        </mxCell>
        <mxCell id="iqE1R30niEO9-FOyuHYD-275" value="generates from" style="curved=1;startArrow=none;endArrow=open;endSize=12;exitX=0.14;exitY=1;entryX=0;entryY=0.44;rounded=0;" edge="1" parent="1" source="iqE1R30niEO9-FOyuHYD-108" target="iqE1R30niEO9-FOyuHYD-40">
          <mxGeometry relative="1" as="geometry">
            <Array as="points">
              <mxPoint x="849" y="1545" />
              <mxPoint x="849" y="2097" />
            </Array>
          </mxGeometry>
        </mxCell>
        <mxCell id="iqE1R30niEO9-FOyuHYD-276" value="owns" style="curved=1;startArrow=none;endArrow=open;endSize=12;exitX=0;exitY=0.41;entryX=0.09;entryY=1;rounded=0;" edge="1" parent="1" source="iqE1R30niEO9-FOyuHYD-125" target="iqE1R30niEO9-FOyuHYD-108">
          <mxGeometry relative="1" as="geometry">
            <Array as="points">
              <mxPoint x="809" y="1545" />
            </Array>
          </mxGeometry>
        </mxCell>
        <mxCell id="iqE1R30niEO9-FOyuHYD-277" value="marks" style="curved=1;startArrow=none;endArrow=open;endSize=12;exitX=0.71;exitY=1;entryX=0.16;entryY=0;rounded=0;" edge="1" parent="1" source="iqE1R30niEO9-FOyuHYD-125" target="iqE1R30niEO9-FOyuHYD-1">
          <mxGeometry relative="1" as="geometry">
            <Array as="points">
              <mxPoint x="2647" y="2097" />
              <mxPoint x="2647" y="3010" />
            </Array>
          </mxGeometry>
        </mxCell>
        <mxCell id="iqE1R30niEO9-FOyuHYD-278" value="checks" style="curved=1;startArrow=none;endArrow=open;endSize=12;exitX=0.06;exitY=1;entryX=1;entryY=0.29;rounded=0;" edge="1" parent="1" source="iqE1R30niEO9-FOyuHYD-125" target="iqE1R30niEO9-FOyuHYD-87">
          <mxGeometry relative="1" as="geometry">
            <Array as="points">
              <mxPoint x="2264" y="2097" />
            </Array>
          </mxGeometry>
        </mxCell>
        <mxCell id="iqE1R30niEO9-FOyuHYD-279" value="uses" style="curved=1;startArrow=none;endArrow=open;endSize=12;exitX=1;exitY=0.79;entryX=0.5;entryY=0;rounded=0;" edge="1" parent="1" source="iqE1R30niEO9-FOyuHYD-151" target="iqE1R30niEO9-FOyuHYD-143">
          <mxGeometry relative="1" as="geometry">
            <Array as="points">
              <mxPoint x="3390" y="1545" />
            </Array>
          </mxGeometry>
        </mxCell>
        <mxCell id="iqE1R30niEO9-FOyuHYD-280" value="manages" style="curved=1;startArrow=none;endArrow=open;endSize=12;exitX=1;exitY=0.89;entryX=1;entryY=0.31;rounded=0;" edge="1" parent="1" source="iqE1R30niEO9-FOyuHYD-151" target="iqE1R30niEO9-FOyuHYD-125">
          <mxGeometry relative="1" as="geometry">
            <Array as="points">
              <mxPoint x="3294" y="1545" />
            </Array>
          </mxGeometry>
        </mxCell>
        <mxCell id="iqE1R30niEO9-FOyuHYD-281" value="uses" style="curved=1;startArrow=none;endArrow=open;endSize=12;exitX=0.97;exitY=1;entryX=1;entryY=0.4;rounded=0;" edge="1" parent="1" source="iqE1R30niEO9-FOyuHYD-151" target="iqE1R30niEO9-FOyuHYD-40">
          <mxGeometry relative="1" as="geometry">
            <Array as="points">
              <mxPoint x="3216" y="1545" />
              <mxPoint x="3216" y="2097" />
            </Array>
          </mxGeometry>
        </mxCell>
        <mxCell id="iqE1R30niEO9-FOyuHYD-282" value="uses" style="curved=1;startArrow=none;endArrow=open;endSize=12;exitX=0.5;exitY=1;entryX=0.5;entryY=0;rounded=0;" edge="1" parent="1" source="iqE1R30niEO9-FOyuHYD-151" target="iqE1R30niEO9-FOyuHYD-54">
          <mxGeometry relative="1" as="geometry">
            <Array as="points" />
          </mxGeometry>
        </mxCell>
        <mxCell id="iqE1R30niEO9-FOyuHYD-283" value="tracks" style="curved=1;startArrow=none;endArrow=open;endSize=12;exitX=0.07;exitY=1;entryX=0.47;entryY=0;rounded=0;" edge="1" parent="1" source="iqE1R30niEO9-FOyuHYD-151" target="iqE1R30niEO9-FOyuHYD-1">
          <mxGeometry relative="1" as="geometry">
            <Array as="points">
              <mxPoint x="2813" y="1545" />
              <mxPoint x="2813" y="3010" />
            </Array>
          </mxGeometry>
        </mxCell>
        <mxCell id="iqE1R30niEO9-FOyuHYD-284" value="validates" style="curved=1;startArrow=none;endArrow=open;endSize=12;exitX=0;exitY=0.62;entryX=1;entryY=0.22;rounded=0;" edge="1" parent="1" source="iqE1R30niEO9-FOyuHYD-151" target="iqE1R30niEO9-FOyuHYD-87">
          <mxGeometry relative="1" as="geometry">
            <Array as="points">
              <mxPoint x="2079" y="1545" />
              <mxPoint x="2079" y="2097" />
            </Array>
          </mxGeometry>
        </mxCell>
        <mxCell id="iqE1R30niEO9-FOyuHYD-285" value="throws" style="curved=1;startArrow=none;endArrow=open;endSize=12;exitX=0;exitY=0.61;entryX=1;entryY=0.03;rounded=0;" edge="1" parent="1" source="iqE1R30niEO9-FOyuHYD-151" target="iqE1R30niEO9-FOyuHYD-202">
          <mxGeometry relative="1" as="geometry">
            <Array as="points">
              <mxPoint x="2033" y="1545" />
            </Array>
          </mxGeometry>
        </mxCell>
        <mxCell id="iqE1R30niEO9-FOyuHYD-286" value="records" style="curved=1;startArrow=none;endArrow=open;endSize=12;exitX=0.5;exitY=1;entryX=1;entryY=0.4;rounded=0;" edge="1" parent="1" source="iqE1R30niEO9-FOyuHYD-174" target="iqE1R30niEO9-FOyuHYD-125">
          <mxGeometry relative="1" as="geometry">
            <Array as="points">
              <mxPoint x="3926" y="1545" />
            </Array>
          </mxGeometry>
        </mxCell>
        <mxCell id="iqE1R30niEO9-FOyuHYD-287" value="records" style="curved=1;startArrow=none;endArrow=open;endSize=12;exitX=0.3;exitY=1;entryX=1;entryY=0.43;rounded=0;" edge="1" parent="1" source="iqE1R30niEO9-FOyuHYD-174" target="iqE1R30niEO9-FOyuHYD-87">
          <mxGeometry relative="1" as="geometry">
            <Array as="points">
              <mxPoint x="3756" y="1545" />
              <mxPoint x="3756" y="2097" />
            </Array>
          </mxGeometry>
        </mxCell>
        <mxCell id="iqE1R30niEO9-FOyuHYD-288" value="stores" style="curved=1;startArrow=none;endArrow=open;endSize=12;exitX=0.66;exitY=1;entryX=0.5;entryY=0;rounded=0;" edge="1" parent="1" source="iqE1R30niEO9-FOyuHYD-189" target="iqE1R30niEO9-FOyuHYD-174">
          <mxGeometry relative="1" as="geometry">
            <Array as="points">
              <mxPoint x="3926" y="872" />
            </Array>
          </mxGeometry>
        </mxCell>
        <mxCell id="iqE1R30niEO9-FOyuHYD-289" value="tracks" style="curved=1;startArrow=none;endArrow=open;endSize=12;exitX=0.36;exitY=1;entryX=1;entryY=0.36;rounded=0;" edge="1" parent="1" source="iqE1R30niEO9-FOyuHYD-189" target="iqE1R30niEO9-FOyuHYD-125">
          <mxGeometry relative="1" as="geometry">
            <Array as="points">
              <mxPoint x="3590" y="872" />
              <mxPoint x="3590" y="1545" />
            </Array>
          </mxGeometry>
        </mxCell>
        <mxCell id="iqE1R30niEO9-FOyuHYD-290" value="counts" style="curved=1;startArrow=none;endArrow=open;endSize=12;exitX=0.32;exitY=1;entryX=1;entryY=0.31;rounded=0;" edge="1" parent="1" source="iqE1R30niEO9-FOyuHYD-189" target="iqE1R30niEO9-FOyuHYD-1">
          <mxGeometry relative="1" as="geometry">
            <Array as="points">
              <mxPoint x="3547" y="872" />
              <mxPoint x="3547" y="3010" />
            </Array>
          </mxGeometry>
        </mxCell>
        <mxCell id="iqE1R30niEO9-FOyuHYD-291" value="controls" style="curved=1;startArrow=none;endArrow=open;endSize=12;exitX=1;exitY=0.72;entryX=1;entryY=0.27;rounded=0;" edge="1" parent="1" source="iqE1R30niEO9-FOyuHYD-206" target="iqE1R30niEO9-FOyuHYD-151">
          <mxGeometry relative="1" as="geometry">
            <Array as="points">
              <mxPoint x="3487" y="872" />
            </Array>
          </mxGeometry>
        </mxCell>
        <mxCell id="iqE1R30niEO9-FOyuHYD-292" value="manages" style="curved=1;startArrow=none;endArrow=open;endSize=12;exitX=1;exitY=0.73;entryX=1;entryY=0.34;rounded=0;" edge="1" parent="1" source="iqE1R30niEO9-FOyuHYD-206" target="iqE1R30niEO9-FOyuHYD-125">
          <mxGeometry relative="1" as="geometry">
            <Array as="points">
              <mxPoint x="3436" y="872" />
              <mxPoint x="3436" y="1545" />
            </Array>
          </mxGeometry>
        </mxCell>
        <mxCell id="iqE1R30niEO9-FOyuHYD-293" value="displays" style="curved=1;startArrow=none;endArrow=open;endSize=12;exitX=0.31;exitY=1;entryX=1;entryY=0.37;rounded=0;" edge="1" parent="1" source="iqE1R30niEO9-FOyuHYD-206" target="iqE1R30niEO9-FOyuHYD-108">
          <mxGeometry relative="1" as="geometry">
            <Array as="points">
              <mxPoint x="2505" y="872" />
            </Array>
          </mxGeometry>
        </mxCell>
        <mxCell id="iqE1R30niEO9-FOyuHYD-294" value="uses" style="curved=1;startArrow=none;endArrow=open;endSize=12;exitX=0;exitY=0.77;entryX=1;entryY=0.16;rounded=0;" edge="1" parent="1" source="iqE1R30niEO9-FOyuHYD-206" target="iqE1R30niEO9-FOyuHYD-87">
          <mxGeometry relative="1" as="geometry">
            <Array as="points">
              <mxPoint x="1969" y="872" />
              <mxPoint x="1969" y="2097" />
            </Array>
          </mxGeometry>
        </mxCell>
        <mxCell id="iqE1R30niEO9-FOyuHYD-295" value="handles" style="curved=1;startArrow=none;endArrow=open;endSize=12;exitX=0;exitY=0.75;entryX=0.94;entryY=0;rounded=0;" edge="1" parent="1" source="iqE1R30niEO9-FOyuHYD-206" target="iqE1R30niEO9-FOyuHYD-202">
          <mxGeometry relative="1" as="geometry">
            <Array as="points">
              <mxPoint x="1920" y="872" />
              <mxPoint x="1920" y="1545" />
            </Array>
          </mxGeometry>
        </mxCell>
        <mxCell id="iqE1R30niEO9-FOyuHYD-296" value="controls" style="curved=1;startArrow=none;endArrow=open;endSize=12;exitX=1;exitY=0.63;entryX=0;entryY=0.43;rounded=0;" edge="1" parent="1" source="iqE1R30niEO9-FOyuHYD-225" target="iqE1R30niEO9-FOyuHYD-151">
          <mxGeometry relative="1" as="geometry">
            <Array as="points">
              <mxPoint x="1302" y="872" />
            </Array>
          </mxGeometry>
        </mxCell>
        <mxCell id="iqE1R30niEO9-FOyuHYD-297" value="manages" style="curved=1;startArrow=none;endArrow=open;endSize=12;exitX=1;exitY=0.99;entryX=0;entryY=0.42;rounded=0;" edge="1" parent="1" source="iqE1R30niEO9-FOyuHYD-225" target="iqE1R30niEO9-FOyuHYD-125">
          <mxGeometry relative="1" as="geometry">
            <Array as="points">
              <mxPoint x="690" y="872" />
              <mxPoint x="690" y="1545" />
            </Array>
          </mxGeometry>
        </mxCell>
        <mxCell id="iqE1R30niEO9-FOyuHYD-298" value="displays" style="curved=1;startArrow=none;endArrow=open;endSize=12;exitX=0.9;exitY=1;entryX=0;entryY=0.11;rounded=0;" edge="1" parent="1" source="iqE1R30niEO9-FOyuHYD-225" target="iqE1R30niEO9-FOyuHYD-108">
          <mxGeometry relative="1" as="geometry">
            <Array as="points">
              <mxPoint x="640" y="872" />
            </Array>
          </mxGeometry>
        </mxCell>
        <mxCell id="iqE1R30niEO9-FOyuHYD-299" value="displays" style="curved=1;startArrow=none;endArrow=open;endSize=12;exitX=0.78;exitY=1;entryX=0;entryY=0.44;rounded=0;" edge="1" parent="1" source="iqE1R30niEO9-FOyuHYD-225" target="iqE1R30niEO9-FOyuHYD-1">
          <mxGeometry relative="1" as="geometry">
            <Array as="points">
              <mxPoint x="590" y="872" />
              <mxPoint x="590" y="3010" />
            </Array>
          </mxGeometry>
        </mxCell>
        <mxCell id="iqE1R30niEO9-FOyuHYD-300" value="uses" style="curved=1;startArrow=none;endArrow=open;endSize=12;exitX=0;exitY=0.77;entryX=0;entryY=0.39;rounded=0;" edge="1" parent="1" source="iqE1R30niEO9-FOyuHYD-225" target="iqE1R30niEO9-FOyuHYD-87">
          <mxGeometry relative="1" as="geometry">
            <Array as="points">
              <mxPoint x="70" y="872" />
              <mxPoint x="70" y="2097" />
            </Array>
          </mxGeometry>
        </mxCell>
        <mxCell id="iqE1R30niEO9-FOyuHYD-301" value="handles" style="curved=1;startArrow=none;endArrow=open;endSize=12;exitX=0;exitY=0.74;entryX=0;entryY=0.25;rounded=0;" edge="1" parent="1" source="iqE1R30niEO9-FOyuHYD-225" target="iqE1R30niEO9-FOyuHYD-202">
          <mxGeometry relative="1" as="geometry">
            <Array as="points">
              <mxPoint x="20" y="872" />
              <mxPoint x="20" y="1545" />
            </Array>
          </mxGeometry>
        </mxCell>
        <mxCell id="iqE1R30niEO9-FOyuHYD-302" value="extends" style="curved=1;startArrow=none;endArrow=open;endSize=12;exitX=0.5;exitY=1;entryX=0.81;entryY=-0.01;rounded=0;" edge="1" parent="1" source="iqE1R30niEO9-FOyuHYD-202" target="iqE1R30niEO9-FOyuHYD-257">
          <mxGeometry relative="1" as="geometry">
            <Array as="points">
              <mxPoint x="1337" y="2097" />
            </Array>
          </mxGeometry>
        </mxCell>
      </root>
    </mxGraphModel>
  </diagram>
</mxfile>
